<?xml version="1.0" encoding="utf-8"?>
<!-- Generator: Adobe Illustrator 23.0.5, SVG Export Plug-In . SVG Version: 6.00 Build 0)  -->
<svg version="1.1" id="Слой_1" xmlns="http://www.w3.org/2000/svg" xmlns:xlink="http://www.w3.org/1999/xlink" x="0px" y="0px"
	 viewBox="0 0 64 64" style="enable-background:new 0 0 64 64;" xml:space="preserve">
<style type="text/css">
	.st0{fill:#FF2400;}
</style>
<title>a</title>
<g>
	<path class="st0" d="M62.2,52L62.2,52c-0.5-1.3-1-2.6-1.7-3.8c0,0,0,0,0-0.1c-1-1.9-2.2-3.7-3.5-5.4v-0.1
		C51.7,36.1,44.2,31.9,35.9,31V18h10.2v2.6c0,0.7,0.6,1.3,1.3,1.3h12.8c0.7,0,1.3-0.6,1.3-1.3V7.7c0-0.7-0.6-1.3-1.3-1.3H48.6V3.8
		c0-0.7-0.6-1.3-1.3-1.3H35.6c-0.7-2-2.9-3-4.9-2.3c-1.5,0.5-2.5,2-2.5,3.6v27.1c-6.4,0.8-12.5,3.5-17.3,7.8l-0.1,0.1
		C3.9,44.9,0,53.6,0,62.7C0,63.4,0.6,64,1.3,64h61.5c0.7,0,1.3-0.6,1.3-1.3C64,59.1,63.4,55.4,62.2,52z M41.6,47.4h-4.5
		c-0.4,0-0.7-0.2-1-0.4c-0.3-0.3-0.4-0.7-0.3-1.1c0.2-0.6,0.8-1.1,1.4-1.1h18.1c0.6,0.8,1.3,1.7,1.8,2.6h-5.3
		c-1.8,0-3.2,1.4-3.2,3.2s1.4,3.2,3.2,3.2H60c0.3,0.8,0.5,1.7,0.7,2.6H41c-0.4,0-0.7-0.2-1-0.4c-0.3-0.3-0.4-0.7-0.3-1.1
		c0.2-0.6,0.8-1.1,1.4-1.1h0.5c1.8,0,3.2-1.4,3.2-3.2C44.8,48.8,43.4,47.4,41.6,47.4z M59.1,51.2h-7.2c-0.4,0-0.6-0.3-0.6-0.6
		c0-0.4,0.3-0.6,0.6-0.6h6.7C58.7,50.3,58.9,50.8,59.1,51.2z M58.9,19.2H48.6v-2L56.8,9h2v10.2H58.9z M53.2,8.9l-4.6,4.6V8.9H53.2z
		 M46.1,7.7v7.7H35.8v-2L44,5.2h2L46.1,7.7L46.1,7.7z M35.8,9.7V5.1h4.6L35.8,9.7z M30.7,3.8c0-0.7,0.6-1.3,1.3-1.3
		c0.7,0,1.3,0.6,1.3,1.3v26.9c-0.4,0-0.8,0-1.3,0s-0.9,0-1.3,0V3.8z M12.2,40.9h7c0.7,0,1.3,0.6,1.3,1.3s-0.6,1.3-1.3,1.3H9.7
		C10.5,42.6,11.3,41.8,12.2,40.9z M10.2,56.3c0-2.1,1.7-3.8,3.8-3.8s3.8,1.7,3.8,3.8s-1.7,3.8-3.8,3.8S10.2,58.4,10.2,56.3z
		 M17.9,61.4c2.8-2.1,3.4-6.1,1.3-9s-6.1-3.4-9-1.3s-3.4,6.1-1.3,9c0.4,0.5,0.8,0.9,1.3,1.3H2.5c0.2-5.5,2-10.8,5.1-15.4h11.5
		c2.1,0,3.8-1.7,3.8-3.8s-1.7-3.8-3.8-3.8h-3.8C27.1,30.3,43,31.9,53,42.2H37.3c-1.9,0-3.6,1.3-4,3.2c-0.4,2.1,1.1,4.1,3.1,4.4
		c0.2,0,0.5,0.1,0.7,0.1h4.5c0.4,0,0.6,0.3,0.6,0.6c0,0.4-0.3,0.6-0.6,0.6h-0.5c-1.9,0-3.6,1.3-4,3.2c-0.4,2.1,1.1,4.1,3.1,4.4
		c0.2,0,0.5,0.1,0.7,0.1h20.2c0.1,0.8,0.2,1.7,0.2,2.6C61.3,61.4,17.9,61.4,17.9,61.4z"/>
	<path class="st0" d="M32,51.2c-2.1,0-3.8,1.7-3.8,3.8s1.7,3.8,3.8,3.8s3.8-1.7,3.8-3.8S34.1,51.2,32,51.2z M32,56.3
		c-0.7,0-1.3-0.6-1.3-1.3s0.6-1.3,1.3-1.3c0.7,0,1.3,0.6,1.3,1.3S32.7,56.3,32,56.3z"/>
</g>
</svg>
