<?xml version="1.0" encoding="utf-8"?>
<!-- Generator: Adobe Illustrator 23.0.5, SVG Export Plug-In . SVG Version: 6.00 Build 0)  -->
<svg version="1.1" id="Слой_1" xmlns="http://www.w3.org/2000/svg" xmlns:xlink="http://www.w3.org/1999/xlink" x="0px" y="0px"
	 viewBox="0 0 64 64" style="enable-background:new 0 0 64 64;" xml:space="preserve">
<style type="text/css">
	.st0{fill:#FF2400;}
</style>
<title>a</title>
<g transform="translate(0,-280.06665)">
	<path class="st0" d="M32,280.1c-8.3,0-14.9,6.7-14.9,14.9v16.7c0,1.5,2.2,1.5,2.1,0V295c0-7.1,5.7-12.8,12.8-12.8
		c7.1,0,12.8,5.7,12.8,12.8v16.7c0,1.4,2.1,1.4,2.1,0V295C46.9,286.7,40.3,280.1,32,280.1z M30.9,338.8v3.1H18.1v-5.4
		c0-1.4-2.1-1.4-2.1,0v5.4h-5.3v-13.9c0-5.8,4.1-10.5,9.6-11.5v8.5c-1.2,0.4-2.1,1.6-2.1,3c0,1.8,1.4,3.2,3.2,3.2
		c1.8,0,3.2-1.4,3.2-3.2c0-1.4-0.9-2.6-2.1-3v-8.7c1.4,0,1.4-2.2,0-2.1c-7.7,0-13.9,6.2-13.9,13.9V343c0,0.6,0.5,1.1,1.1,1.1h44.8
		c0.6,0,1.1-0.5,1.1-1.1v-14.9c0-7.7-6.2-13.9-13.9-13.9c-1.4,0-1.4,2.2,0,2.1v7.6c-2.4,0.5-4.3,2.7-4.3,5.2v1.1
		c0,1.4,2.1,1.4,2.1,0v-1.1c0-1.8,1.4-3.2,3.2-3.2c1.8,0,3.2,1.4,3.2,3.2v1.1c0,1.5,2.2,1.5,2.1,0v-1.1c0-2.6-1.8-4.7-4.3-5.2v-7.4
		c5.5,1,9.6,5.7,9.6,11.5v13.9H48v-5.4c0-1.4-2.1-1.4-2.1,0v5.4H33.1v-3.1l5.3-23.3c0-0.1,0.1-0.2,0.1-0.3v-5.7
		c2-1.8,3.2-4.3,3.2-7.1v-6.4c0-0.6-0.5-1.1-1.1-1.1h-2.1c-2.4,0-3.3-2.5-3.3-2.5c-0.1-0.5-0.6-0.8-1.1-0.7c-0.4,0-0.8,0.3-1,0.7
		c0,0-0.9,2.5-3.2,2.5h-6.4c-0.6,0-1.1,0.5-1.1,1.1v6.4c0,2.8,1.2,5.4,3.2,7.1v5.7c0,0.1,0,0.2,0,0.2L30.9,338.8z M34.1,295
		c0.8,1.1,2.2,2.1,4.3,2.1h1.1v5.3c0,4.2-3.3,7.5-7.5,7.5s-7.5-3.3-7.5-7.5v-5.3h5.3C31.9,297.1,33.3,296.1,34.1,295z M27.7,311.1
		c1.3,0.6,2.7,1,4.3,1c1.5,0,3-0.4,4.3-1v3.9c0,0-0.9,2.4-4.3,2.4s-4.3-2.4-4.3-2.4V311.1z M35.4,318.7L32,333.9l-3.4-15.2
		c0.9,0.5,2,0.8,3.4,0.8C33.4,319.5,34.5,319.2,35.4,318.7z M21.3,327c0.6,0,1.1,0.5,1.1,1.1c0,0.6-0.5,1.1-1.1,1.1
		c-0.6,0-1.1-0.5-1.1-1.1S20.7,327,21.3,327z"/>
</g>
</svg>
