<?xml version="1.0" encoding="utf-8"?>
<!-- Generator: Adobe Illustrator 23.0.5, SVG Export Plug-In . SVG Version: 6.00 Build 0)  -->
<svg version="1.1" id="Слой_1" xmlns="http://www.w3.org/2000/svg" xmlns:xlink="http://www.w3.org/1999/xlink" x="0px" y="0px"
	 viewBox="0 0 64 64" style="enable-background:new 0 0 64 64;" xml:space="preserve">
<style type="text/css">
	.st0{fill:#FF2400;}
</style>
<title>a</title>
<g>
	<path class="st0" d="M48.5,21.3c0-1.9,0-3.7,0-5.6c0-0.1,0-0.2-0.1-0.3c-0.3-0.5-0.6-1-0.9-1.4c-0.1-0.1-0.1-0.1-0.2-0.1
		c0,0-0.1,0-0.1,0c-4.4,0-8.7,0-13.1,0c-0.2,0-0.3,0-0.5,0.1c-2.9,1.2-5.9,2.4-8.9,3.7c-0.2,0.1-0.3,0.1-0.5,0.1
		c-0.3-0.1-0.5-0.3-0.5-0.6c0-0.2,0-0.5,0-0.7c-0.1,0-0.1,0-0.2,0.1c-0.6,0.4-1.3,0.7-1.9,1.1c-0.2,0.1-0.3,0.2-0.5,0.1
		c-0.3-0.1-0.5-0.3-0.5-0.6c0-0.2,0-0.5,0-0.7c-0.1,0-0.1,0-0.2,0.1c-0.6,0.4-1.2,0.7-1.9,1.1c-0.1,0.1-0.3,0.2-0.5,0.1
		c-0.4,0-0.6-0.3-0.6-0.7c0-0.6,0-1.2,0.1-1.9c0.1-0.5,0.2-0.9,0.3-1.4c-0.2,0-0.4,0-0.6,0c-0.1,0-0.1,0.1-0.2,0.1
		c-0.3,0.5-0.6,1-0.9,1.5c-0.1,0.1-0.1,0.2-0.1,0.3c0,1.8,0,3.6,0,5.4c0,0.1,0,0.2,0,0.3c-0.3,0-0.6-0.1-0.8-0.1
		c-0.1,0-0.2-0.1-0.4-0.1c-0.1,0-0.1-0.1-0.1-0.1c0-1.9,0-3.8,0-5.6c0-0.3,0.1-0.5,0.2-0.7c0.4-0.6,0.8-1.3,1.2-1.9
		c0.2-0.3,0.4-0.4,0.7-0.4c0.4,0,0.8,0,1.2,0c0.1,0,0.2,0,0.2-0.2c0-0.2,0.1-0.3,0.2-0.4c0.2-0.4,0.5-0.5,0.9-0.4
		c0.3,0.1,0.5,0.5,0.3,0.9c-0.3,0.8-0.6,1.6-0.7,2.4c-0.1,0.4-0.1,0.7-0.1,1.1c0.1,0.1,0.1,0,0.2,0c0.5-0.3,1.1-0.6,1.6-1
		c0.1-0.1,0.1-0.1,0.2-0.2c0.2-1.4,0.7-2.7,1.4-3.9c0.4-0.7,0.8-1.3,1.4-1.9c0.1-0.1,0.1-0.1,0.2-0.2c0.3-0.2,0.7-0.2,0.9,0
		c0.2,0.2,0.3,0.6,0,0.9c-0.2,0.2-0.3,0.4-0.5,0.5c-0.8,1-1.3,2.1-1.7,3.3c-0.2,0.8-0.4,1.6-0.5,2.4c0,0,0,0.1,0,0.1
		c0.1,0,0.1,0,0.2-0.1c0.5-0.3,1.1-0.6,1.6-1c0.1-0.1,0.2-0.1,0.2-0.3c0.1-0.7,0.3-1.3,0.5-2c0.1-0.4,0.4-0.5,0.8-0.5
		c0.4,0.1,0.6,0.5,0.5,0.9c-0.1,0.5-0.3,0.9-0.4,1.4C25.1,14.9,25,15.5,25,16c0.1,0,0.2,0,0.2-0.1c2.6-1.1,5.2-2.1,7.7-3.2
		c0.4-0.2,0.8-0.2,1.2-0.2c4.5,0,9,0,13.4,0c0.1,0,0.3,0,0.4,0c0.2,0.1,0.3,0.2,0.4,0.3c0.4,0.7,0.9,1.4,1.3,2.1
		c0.1,0.1,0.1,0.3,0.1,0.5c0,1.3,0,2.6,0,3.9c0,0.5,0,1,0,1.6c-0.1,0.1-0.2,0.1-0.4,0.1C49.1,21.2,48.8,21.2,48.5,21.3z"/>
	<path class="st0" d="M10.5,20.2c0-2.3,0-4.6,0-6.9c0-5.6,3.7-10.5,9.2-11.9c0.7-0.2,1.5-0.3,2.2-0.4c1.2-0.2,2.3-0.3,3.5-0.4
		c1.9-0.2,3.8-0.3,5.7-0.3c1.6,0,3.3,0,4.9,0.1c1.7,0.1,3.3,0.3,4.9,0.5C42,1,43,1.1,44,1.3c4.5,1,8.1,4.6,9.1,9.1
		c0.2,1,0.3,2,0.3,3c0,2.3,0,4.5,0,6.8c-0.4,0.1-0.9,0.2-1.3,0.3c0-2.4,0-4.8,0-7.2c0-3.9-2.1-7.6-5.5-9.5c-0.1,0-0.2-0.1-0.3-0.1
		c0,0,0,0,0,0c0,0,0,0-0.1-0.1c-0.1-0.1-0.2-0.1-0.2-0.2c-0.2-0.3-3.6-1.1-4.9-1.2c-0.1,0-0.2,0-0.3-0.1c-1-0.1-2.1-0.3-3.1-0.4
		c-1.4-0.1-2.8-0.2-4.3-0.2c-2.2-0.1-4.3,0-6.5,0.2c-1.5,0.1-2.9,0.3-4.3,0.5c-0.2,0-0.3,0-0.5,0c-1.1,0-4.3,1-4.6,1.4
		c-0.1,0-0.2,0.1-0.2,0.1c-2.9,1.7-4.8,4.2-5.4,7.5c-0.1,0.7-0.2,1.4-0.2,2.1c0,2.3,0,4.6,0,6.9c0,0.1,0,0.2,0,0.3
		c-0.2,0.1-0.3,0-0.5-0.1C11,20.3,10.8,20.3,10.5,20.2z"/>
	<path class="st0" d="M52.1,43c0,0.1-0.1,0.1-0.1,0.2c-0.4,0.5-0.9,0.9-1.4,1.3c0,0-0.1,0-0.1,0.1c0.3-1.2,0.5-2.5,0.5-3.7
		c0,0-0.1,0-0.1,0.1c-1.2,1.8-2.3,3.7-3.1,5.7c0,0.1-0.1,0.1-0.1,0.2c-0.2,0.3-0.4,0.4-0.7,0.3c-0.3,0-0.5-0.2-0.6-0.5
		c-0.1-0.2,0-0.4,0-0.5c0.1-0.3,0.2-0.6,0.4-0.9c0.7-1.7,1.6-3.2,2.6-4.8c0-0.1,0.1-0.1,0.1-0.2c0,0,0,0,0,0c0,0,0.1,0,0.1,0
		c0.2-0.2,0.3-0.4,0.5-0.6c0.1-0.1,0.2-0.2,0.3-0.3c0.6-0.6,1.2-1.1,1.8-1.7c0,0,0.1-0.1,0.2-0.1c0,0.3,0,0.7,0,1
		c0.1,0,0.2,0,0.2-0.1c0.9-0.7,1.6-1.5,2-2.6c0.2-0.7,0.5-1.3,0.7-2c0.5-1.5,0.6-3.1,0.2-4.6c-0.1-0.6-0.3-1.1-0.5-1.6
		c0-0.1,0-0.1,0-0.2c0-0.6,0-1.1,0-1.7c0.6,0.2,1,0.6,1.3,1.1c0.1,0.3,0.2,0.6,0.3,0.9c0.6,1.8,0.7,3.6,0.4,5.4
		c-0.3,1.3-0.7,2.5-1.2,3.7c-0.6,1.5-1.7,2.5-3.1,3.3c-0.2,0.1-0.2,0.2-0.3,0.4c0,0.3,0,0.6-0.1,0.9C52.3,42,52.2,42.5,52.1,43
		C52.2,43,52.2,43,52.1,43C52.1,43,52.1,43,52.1,43z"/>
	<path class="st0" d="M13.5,44.6c-0.1,0-0.2-0.1-0.2-0.2c-0.4-0.4-0.8-0.7-1.2-1.2c-0.1-0.1-0.2-0.1-0.2-0.2
		c-0.1-0.8-0.2-1.6-0.3-2.5c0-0.2-0.1-0.3-0.3-0.4c-1.6-0.8-2.7-2.1-3.3-3.8c-0.2-0.6-0.4-1.2-0.6-1.8C7,33.4,6.8,32.2,6.8,31
		c0-1.4,0.4-2.8,0.9-4.1c0.2-0.5,0.6-0.9,1.2-1.1c0,0.6,0,1.2,0,1.8c0,0.1,0,0.1,0,0.2c0,0.1-0.1,0.3-0.1,0.4
		c-0.6,1.7-0.7,3.5-0.2,5.2c0.3,1,0.6,1.9,1,2.8c0.4,0.9,1,1.7,1.8,2.3c0.1,0,0.1,0.1,0.2,0.1c0-0.3,0-0.7,0-1
		c0.1,0,0.1,0.1,0.2,0.1c0.6,0.6,1.3,1.2,1.9,1.8c0.2,0.2,0.4,0.4,0.7,0.6c0,0,0,0.1,0,0.1l0,0c0,0.1,0,0.2,0.2,0.2l0,0
		c0,0.1,0.1,0.2,0.1,0.2c0.8,1.3,1.6,2.6,2.3,4c0.3,0.5,0.5,1.1,0.7,1.6c0.2,0.4,0,0.8-0.4,1c-0.4,0.1-0.7-0.1-0.9-0.5
		c-0.8-2-1.9-3.9-3.1-5.7c0-0.1-0.1-0.1-0.1-0.2c0,0,0,0,0,0c0,0,0,0,0,0c0,0,0,0,0,0c0,0,0,0.1,0,0.1c0.1,0.8,0.2,1.6,0.3,2.4
		C13.3,43.8,13.4,44.2,13.5,44.6z"/>
	<path class="st0" d="M48.8,49.8c0.4-0.9,0.7-1.8,1-2.8c0.1-0.3,0.2-0.7,0.3-1c0-0.1,0.1-0.2,0.2-0.3c0.3-0.2,0.5-0.5,0.8-0.8
		c0.2-0.2,0.4-0.4,0.6-0.6c0,0,0.1,0,0.1,0c0,0.2,0,0.3-0.1,0.4c-0.4,1.9-1,3.8-1.8,5.6C49.6,50.2,49.2,50,48.8,49.8z"/>
	<path class="st0" d="M13.9,46.1c0.3,1,0.6,1.9,0.9,2.9c0.1,0.3,0.2,0.6,0.3,0.9c0,0,0,0,0,0.1c-0.4,0.1-0.7,0.3-1,0.6
		c0,0-0.1,0-0.1,0c-0.5-1.1-0.9-2.2-1.2-3.4c-0.3-0.8-0.5-1.7-0.6-2.5c0,0,0-0.1,0-0.2c0.1,0,0.1,0.1,0.2,0.1
		c0.5,0.5,0.9,0.9,1.4,1.4C13.8,45.9,13.8,46,13.9,46.1z"/>
	<path class="st0" d="M24.2,40.5c0.4-0.3,0.8-0.5,1.2-0.8c0.1,0,0.1,0,0.1-0.1c0.2-0.1,0.3-0.1,0.5-0.2c0.6-0.3,1.1-0.5,1.7-0.7
		c0.2-0.1,0.4-0.1,0.6-0.1c0.1,0,0.3,0,0.4,0c0.4,0,0.9,0,1.3,0c0,0.1,0,0.2,0,0.3c0,0.4-0.2,0.6-0.5,0.7c-0.5,0.2-0.9,0.4-1.3,0.7
		l-0.9,0.8c-0.3,0.3-0.6,0.7-0.6,1.1c0.4,0,0.8,0,1.2,0c0.3,0,0.5,0.1,0.7,0.3c0.5,0.5,1.1,0.9,1.8,1.2c1.1,0.5,2.2,0.5,3.3,0
		c0.7-0.3,1.3-0.7,1.8-1.2c0.2-0.2,0.4-0.3,0.7-0.3c0.3,0,0.7,0,1,0c0.1,0,0.1,0,0.2,0c0-0.1,0-0.1,0-0.1c-0.1-0.4-0.3-0.7-0.6-1
		l-1-0.7c0-0.1-0.1-0.1-0.2-0.1c-0.4-0.2-0.7-0.4-1.1-0.6C34.1,39.7,34,39.5,34,39c0-0.1,0-0.2,0-0.3c0.1,0,0.2,0,0.3,0
		c0.4,0,0.8,0,1.3,0c0.2,0,0.5,0,0.7,0.1c0.7,0.2,1.3,0.5,2,0.8c0.1,0,0.2,0.1,0.3,0.1c0,0.1,0,0.1,0.1,0.1c0.4,0.2,0.8,0.4,1.1,0.7
		l0.5,0.8c0.6,0.5,1.2,0.9,1.8,1.4c0.1,0,0.1,0.1,0.1,0.1c0,0,0,0,0,0l0,0c0,0.1,0.1,0.1,0.1,0.2c0.8,1.3,1.2,2.7,1.2,4.2
		c0,0.2,0,0.4-0.2,0.6c-0.2,0.2-0.4,0.3-0.6,0.2c0-0.1,0-0.2,0-0.3c0.1-0.3-0.1-0.5-0.4-0.7c-0.1-0.1-0.2-0.1-0.3-0.2
		c0-0.7-0.2-1.4-0.4-2c-0.6-1.5-1.6-2.6-2.9-3.4c0,0,0,0,0,0c0,0,0,0,0,0c0,0,0,0,0,0c0,0,0,0,0,0c-0.1,0.1,0,0.1,0,0.2
		c0.1,0.2,0.1,0.4,0.1,0.5c0.2,0.9-0.5,1.7-1.4,1.7c-0.3,0-0.6,0-0.8,0c-0.2,0-0.3,0-0.5,0.2c-0.6,0.6-1.4,1-2.2,1.3
		c-0.1,0-0.2,0-0.3,0c-1.1,0-2.2,0-3.3,0c-0.1,0-0.2,0-0.3,0c0,0-0.1,0-0.1,0c-0.8-0.3-1.5-0.7-2.1-1.3c-0.1-0.1-0.3-0.2-0.4-0.2
		c-0.3,0-0.6,0-0.9,0c-0.9,0-1.5-0.8-1.3-1.7c0-0.2,0.1-0.4,0.2-0.7c0,0-0.1,0-0.1,0c-1.2,0.8-2.1,1.7-2.7,2.9
		c-0.4,0.8-0.6,1.6-0.6,2.5c-0.1,0.1-0.3,0.2-0.4,0.3c-0.1,0.1-0.2,0.2-0.2,0.4c0,0.2,0,0.3,0,0.5c-0.5,0-0.8-0.3-0.8-0.8
		c0-0.6,0.1-1.2,0.2-1.9c0.2-0.9,0.6-1.8,1.1-2.6c0.1-0.2,0.3-0.3,0.5-0.5c0.4-0.4,0.9-0.7,1.4-1.1L24.2,40.5z"/>
	<path class="st0" d="M21.2,60.5c-0.8-0.7-1.5-1.5-2.3-2.3c-0.1-0.2-0.3-0.3-0.4-0.5c0-0.7,0-1.4,0-2.1c0.2,0.3,0.5,0.6,0.7,0.9
		c0.6,0.8,1.3,1.5,2,2.2c0,0.1,0,0.1,0,0.2c0,0.5,0,1,0,1.5C21.3,60.4,21.3,60.4,21.2,60.5z"/>
	<path class="st0" d="M45.4,57.8c-0.6,0.7-1.3,1.4-1.9,2.1c-0.2,0.2-0.5,0.5-0.7,0.7c0-0.6,0-1.2,0-1.8c0.4-0.4,0.8-0.8,1.1-1.2
		c0.5-0.6,1-1.2,1.5-1.8c0,0,0.1-0.1,0.1-0.1c0,0.6,0,1.3,0,1.9C45.4,57.6,45.4,57.7,45.4,57.8z"/>
	<path class="st0" d="M41.9,61.2c-0.3,0.2-0.6,0.5-0.9,0.7c-0.1,0.1-0.1,0.1-0.1,0.2c-0.2,0.4-0.5,0.7-0.9,1c0-0.6,0-1.1-0.3-1.6
		c0,0,0,0,0-0.1c0.1-0.4,0.4-0.6,0.7-0.8c0.5-0.4,1-0.8,1.5-1.3C41.9,60,41.9,60.6,41.9,61.2z"/>
	<path class="st0" d="M24,63.1c-0.3-0.3-0.6-0.6-0.8-0.9c-0.1-0.1-0.1-0.2-0.2-0.3c-0.3-0.2-0.6-0.5-0.8-0.7c0,0,0-0.1,0-0.1
		c0-0.5,0-1.1,0-1.6c0.5,0.4,1,0.8,1.5,1.2c0.1,0.1,0.1,0.1,0.2,0.2c0.3,0.2,0.5,0.4,0.6,0.7c0,0.1-0.1,0.2-0.1,0.2
		C24.1,62,24,62.2,24,62.5C23.9,62.7,24,62.9,24,63.1z"/>
	<path class="st0" d="M31.4,47.5c0-0.5,0-0.9,0-1.4c0.4,0,0.9,0,1.3,0c0,0.5,0,0.9,0,1.4C32.3,47.5,31.8,47.5,31.4,47.5z"/>
	<path class="st0" d="M14.5,23.1c0.1-0.2,0.1-0.4,0.1-0.6c0-0.2,0-0.4,0-0.6c0.4,0.1,0.9,0.2,1.3,0.3c0,0.2,0,0.4,0,0.7
		c0,0.2,0,0.4-0.1,0.6C15.3,23.4,14.9,23.3,14.5,23.1z"/>
	<path class="st0" d="M49.8,21.8c0,0.3,0,0.6,0,0.9c0,0.1,0,0.2,0.1,0.3c-0.4,0.2-0.9,0.3-1.3,0.4c-0.1-0.2-0.1-0.3-0.1-0.5
		c0-0.3,0-0.5,0-0.8C48.9,21.9,49.3,21.8,49.8,21.8z"/>
	<path class="st0" d="M46.2,54.5c0.2-0.2,0.3-0.5,0.5-0.7c0.1-0.1,0.1-0.2,0.2-0.2c0,0.7,0,1.5,0,2.2c0,0.1,0,0.1,0,0.2
		c-0.2,0.3-0.4,0.5-0.6,0.8C46.2,56,46.2,55.3,46.2,54.5z"/>
	<path class="st0" d="M17.1,53.6c0.2,0.2,0.3,0.5,0.5,0.7c0.1,0.1,0.1,0.2,0.2,0.2c0,0.7,0,1.4,0,2.1c0,0.1,0,0.1,0,0.1
		c-0.2-0.2-0.4-0.5-0.6-0.8C17.1,55.1,17.1,54.4,17.1,53.6z"/>
	<path class="st0" d="M52.2,22.4c0-0.4,0-0.8,0-1.1c0.4-0.1,0.9-0.2,1.3-0.3c0,0.3,0,0.7,0,1C53.1,22.2,52.6,22.3,52.2,22.4z"/>
	<path class="st0" d="M11.8,21.3c0,0.4,0,0.7,0,1.1c-0.4-0.1-0.9-0.2-1.3-0.4c0-0.4,0-0.7,0-1.1c0.3,0,0.6,0.1,0.9,0.2
		C11.5,21.2,11.7,21.2,11.8,21.3z"/>
	<path class="st0" d="M51.9,44.3C51.9,44.4,51.9,44.4,51.9,44.3C51.9,44.4,51.9,44.4,51.9,44.3z"/>
	<path class="st0" d="M27.4,9.6c0,0.1-0.1,0.3-0.2,0.4c-0.2,0.2-0.4,0.4-0.6,0.7c-0.2,0.3-0.6,0.3-0.9,0.1c-0.3-0.2-0.3-0.6-0.1-0.9
		C25.8,9.5,26,9.3,26.3,9c0.2-0.2,0.5-0.2,0.7-0.1C27.3,9,27.4,9.2,27.4,9.6z"/>
	<path class="st0" d="M20.1,10.5c-0.3,0-0.5-0.1-0.6-0.3c-0.1-0.2-0.1-0.5,0-0.7c0.1-0.2,0.3-0.4,0.5-0.6C20.3,8.8,20.7,8.8,21,9
		c0.2,0.2,0.3,0.6,0,0.9c-0.1,0.1-0.3,0.3-0.4,0.4C20.5,10.5,20.3,10.5,20.1,10.5z"/>
	<path class="st0" d="M31.6,58.6c2,0,3.5,0.2,5,0.6c0.1,0,0.1,0,0.2,0.1c0.3,0.1,0.5,0.5,0.4,0.8c-0.1,0.3-0.4,0.6-0.8,0.5
		c-0.4-0.1-0.8-0.2-1.2-0.3c-1.4-0.3-2.9-0.3-4.4-0.3c-1.1,0.1-2.2,0.2-3.2,0.5c-0.4,0.1-0.7,0-0.8-0.3c-0.1-0.3-0.1-0.6,0.2-0.8
		c0.1-0.1,0.2-0.1,0.3-0.1c0.7-0.2,1.3-0.3,2-0.4C30.3,58.7,31.1,58.6,31.6,58.6z"/>
	<path class="st0" d="M31.9,53.8c-1.2,0-2.4,0-3.6,0c-0.4,0-0.6-0.2-0.7-0.5c-0.1-0.4,0.2-0.9,0.6-0.9c0.1,0,0.2,0,0.2,0
		c2.3,0,4.6,0,6.9,0c0.1,0,0.2,0,0.3,0c0.4,0.1,0.6,0.4,0.6,0.8c0,0.3-0.3,0.6-0.7,0.6c-0.7,0-1.4,0-2.1,0
		C32.9,53.8,32.4,53.8,31.9,53.8z"/>
	<path class="st0" d="M39.5,50.8c0-0.1,0.1-0.2,0.2-0.3c0.2-0.3,0.3-0.7,0.3-1.1c0.1,0,0.1,0,0.2,0.1c0.4,0.2,0.5,0.5,0.4,0.9
		c-0.1,0.4-0.5,0.5-0.9,0.4C39.6,50.9,39.5,50.8,39.5,50.8z"/>
	<path class="st0" d="M23.9,49.5c0,0.5,0.2,0.9,0.5,1.3c-0.4,0.2-0.8,0-1-0.3C23.3,50.1,23.5,49.7,23.9,49.5
		C23.9,49.5,23.9,49.5,23.9,49.5z"/>
	<path class="st0" d="M36.1,23.3c0-0.1,0.2-0.2,0.2-0.3c0.1-0.1,0.2-0.2,0.3-0.3c0.3-0.2,0.6-0.2,0.9,0c0.3,0.3,0.3,0.7,0.1,0.9
		c-0.1,0.1-0.1,0.2-0.2,0.3c-0.4,0-0.9,0-1.3,0C36,23.7,36,23.5,36.1,23.3z"/>
	<path class="st0" d="M27.8,23c0,0.1,0.1,0.2,0.2,0.3c0.1,0.2,0.1,0.4,0,0.6c-0.4,0-0.9,0-1.3,0c-0.1-0.1-0.1-0.2-0.2-0.3
		c-0.3-0.4-0.1-0.9,0.4-1.1c0,0,0.1,0,0.1,0c0.3,0,0.5,0.1,0.7,0.3C27.7,22.9,27.7,22.9,27.8,23z"/>
	<path class="st0" d="M16.4,54.8c-0.5-0.7-0.9-1.5-1.4-2.3c-0.2-0.4-0.4-0.8-0.6-1.3c0,0,0-0.1,0-0.1c0.3-0.3,0.7-0.5,1.1-0.6
		c0.1,0.2,0.2,0.4,0.3,0.6c0.2,0.4,0.4,0.7,0.6,1.1c0,0.8,0,1.6,0,2.4C16.4,54.7,16.4,54.7,16.4,54.8z"/>
	<path class="st0" d="M49.6,51.2c-0.6,1.2-1.2,2.3-1.9,3.4c0,0.1-0.1,0.1-0.1,0.2c0-0.9,0-1.7,0-2.6c0.3-0.6,0.6-1.1,0.9-1.7
		C48.9,50.6,49.3,50.9,49.6,51.2z"/>
	<path class="st0" d="M24.9,62.2c1,0.8,2.2,1.2,3.4,1.5c0.5,0.1,1,0.2,1.6,0.3c-0.1,0-0.2,0-0.4,0c-1.2,0-2.4,0-3.6,0
		c-0.9,0-1.5-0.8-1.1-1.7C24.8,62.3,24.8,62.2,24.9,62.2z"/>
	<path class="st0" d="M34.1,64c1-0.1,2-0.3,2.9-0.7c0.7-0.3,1.4-0.6,2-1.1c0.2,0.2,0.2,0.4,0.2,0.6c0,0.7-0.5,1.2-1.2,1.2
		c-1.2,0-2.4,0-3.6,0C34.3,64,34.2,64,34.1,64z"/>
	<path class="st0" d="M39.2,49.2c0.1,0.4,0,0.8-0.3,1.2c-0.1,0.1-0.2,0.1-0.3,0.2c-1-0.2-2-0.4-3-0.5c-1.4-0.1-2.7-0.2-4.1-0.2
		c-2.1,0-4.2,0.2-6.2,0.6c-0.2-0.1-0.4-0.2-0.5-0.4c-0.2-0.3-0.2-0.6-0.1-0.9c0.2-0.1,0.5-0.1,0.7-0.2c1.7-0.4,3.5-0.5,5.3-0.5
		c1.2,0,2.5,0,3.7,0c0.8,0,1.7,0.1,2.5,0.2C37.7,48.9,38.4,49,39.2,49.2z"/>
	<path class="st0" d="M15.4,24.2c-0.5,0.9-1,1.9-1.4,2.8c-0.3,0.7-0.7,1.3-1,2c-0.1,0.2-0.1,0.3-0.1,0.5c0,2.7,0,5.3,0,8
		c0,0.1,0,0.2,0,0.3c-0.3-0.2-0.5-0.4-0.7-0.7c-0.2-0.2-0.4-0.4-0.6-0.6c0,0,0,0,0-0.1c0-2,0-4,0-6c0-0.1,0-0.2-0.1-0.2
		c-0.5-0.9-1-1.9-1.6-2.8c0-0.1-0.1-0.2-0.2-0.2c0-0.5,0-1,0-1.5c0.3,0,0.5,0.1,0.8,0.3c0-1.1,0-2.1,0-3.2c0.3,0,0.5,0.1,0.8,0.2
		c0.2,0,0.4,0.1,0.5,0.2c0,0.9,0,1.8,0,2.7c0,0.7,0,1.3,0,2c0,0.1,0,0.2,0.1,0.3C12,28,12,28,12,27.9c0.2-0.5,0.5-0.9,0.7-1.4
		c0.5-0.9,0.9-1.8,1.4-2.7C14.6,23.9,15,24,15.4,24.2z"/>
	<path class="st0" d="M51.2,37.7c0-0.1,0-0.2,0-0.3c0-2.7,0-5.4,0-8c0-0.2,0-0.3-0.1-0.5c-0.7-1.5-1.4-3.1-2.1-4.6
		c0-0.1-0.1-0.2-0.1-0.2c0,0,0.1-0.1,0.1-0.1c0.4-0.1,0.8-0.2,1.2-0.3c0.6,1.4,1.2,2.8,1.9,4.2c0,0,0,0.1,0.1,0.1
		c0.1-0.1,0-0.2,0-0.3c0-1.5,0-2.9,0-4.4c0-0.1,0-0.2,0-0.2c0.4-0.1,0.9-0.3,1.3-0.3c0,1.1,0,2.1,0,3.2c0.3-0.1,0.5-0.3,0.8-0.3
		c0,0.5,0,1,0,1.5c-0.1,0.1-0.1,0.1-0.2,0.2c-0.5,0.9-1,1.8-1.5,2.8c-0.1,0.1-0.1,0.2-0.1,0.4c0,2,0,3.9,0,5.9c0,0,0,0.1-0.1,0.1
		c-0.4,0.3-0.7,0.7-1.1,1C51.3,37.7,51.2,37.7,51.2,37.7z"/>
	<path class="st0" d="M41,36.6c-0.5,0-0.9-0.2-1.4-0.2c0,0-0.1,0-0.1,0c-0.1-0.1-0.2-0.1-0.2-0.1c-0.4-0.1-0.7-0.3-1.1-0.5
		c-0.3-0.1-0.4-0.4-0.4-0.6c0-0.3,0.1-0.5,0.4-0.6c0.2-0.1,0.5-0.1,0.7,0c0.4,0.2,0.9,0.4,1.4,0.5c0.1,0,0.1,0,0.2,0
		c0,0.1,0.1,0,0.1,0c0.5,0.1,0.9,0.1,1.4,0.1c0.1,0,0.2,0,0.3,0c0.3,0.1,0.6,0.4,0.6,0.7c0,0.4-0.3,0.6-0.7,0.7c-0.3,0-0.7,0-1,0
		C41.1,36.6,41,36.6,41,36.6z"/>
	<path class="st0" d="M24.1,36.5c-0.2,0-0.3,0.1-0.5,0.1c0,0-0.1,0-0.1,0c0,0-0.1,0.1-0.1,0.1c0,0,0-0.1-0.1-0.1c-0.1,0-0.1,0-0.2,0
		c0,0-0.1,0-0.1,0c0,0,0,0-0.1,0c-0.3,0-0.7,0-1,0c-0.1,0-0.3,0-0.4,0c-0.3-0.1-0.5-0.4-0.5-0.7c0-0.3,0.2-0.6,0.5-0.6
		c0.1,0,0.2,0,0.3,0c0.4,0,0.9,0,1.3-0.1c0.1,0,0.2,0,0.3-0.1c0,0,0.1,0,0.1,0c0.5-0.1,1-0.3,1.4-0.5c0.3-0.2,0.7-0.1,0.9,0.2
		c0.2,0.3,0.2,0.7-0.1,0.9c-0.1,0.1-0.2,0.1-0.3,0.2c-0.4,0.2-0.8,0.3-1.2,0.5c0,0-0.1,0-0.1,0c-0.1,0-0.2,0-0.2,0.1
		C24.2,36.4,24.2,36.4,24.1,36.5z"/>
	<path class="st0" d="M36.2,25.4c0,0.3-0.1,0.6-0.3,0.9c-0.1,0.1-0.2,0.3-0.3,0.4c0,0-0.1,0.1,0,0.1c-0.1,0-0.1,0.1-0.2,0.2
		c-0.4,0.5-0.8,1-1.2,1.5c0,0-0.1,0.1-0.1,0.1c0,0,0,0,0,0s0,0,0,0c-0.1,0.1-0.2,0.2-0.2,0.2c-0.3,0.3-0.7,0.3-1,0
		c-0.2-0.2-0.2-0.4-0.2-0.7c0,0,0-0.1,0-0.1c0.1-0.1,0.1-0.2,0.2-0.3c0.7-0.8,1.4-1.7,2.1-2.5c0.1-0.1,0.2-0.2,0.3-0.3
		c0,0,0.1,0,0.1,0c0.2,0,0.3,0,0.5,0c0,0,0,0,0.1,0c0.1,0.1,0.2,0.2,0.3,0.3C36.1,25.3,36.1,25.4,36.2,25.4z"/>
	<path class="st0" d="M28,25.3c0.2-0.4,0.5-0.5,0.9-0.4c0,0,0.1,0,0.1,0.1c0.1,0.1,0.2,0.2,0.2,0.3c0.7,0.8,1.4,1.7,2.1,2.5
		c0.1,0.1,0.2,0.3,0.3,0.4c0,0,0,0,0,0c0,0,0,0,0,0c0,0,0,0.1,0,0.1c0,0.3-0.3,0.6-0.6,0.6c-0.2,0-0.4-0.1-0.6-0.2l0,0l0,0
		c0,0,0-0.1-0.1-0.1c-0.5-0.7-1.1-1.3-1.6-2c0,0,0,0-0.1,0c-0.1-0.2-0.4-0.4-0.5-0.7c-0.1-0.2-0.2-0.3-0.2-0.5
		C28,25.5,28,25.4,28,25.3z"/>
	<path class="st0" d="M35.2,37.1c0.2,0.2,0.3,0.6,0.3,0.9c-0.5,0-1,0-1.4,0c0-0.1,0-0.2,0-0.3c0-0.5,0.5-0.9,1-0.7
		C35,37.1,35.1,37.1,35.2,37.1C35.1,37.2,35.1,37.2,35.2,37.1z"/>
	<path class="st0" d="M28.6,38c0-0.1,0-0.1,0-0.2c0-0.3,0.1-0.5,0.3-0.6c0,0,0.1-0.1,0.1-0.1c0,0,0,0,0.1,0c0.1,0,0.2,0,0.3,0
		c0.3,0.1,0.6,0.3,0.6,0.7c0,0.1,0,0.2,0,0.3C29.5,38,29,38,28.6,38z"/>
	<path class="st0" d="M37,31.9c-0.5,0.3-0.9,0.5-1.4,0.8c-0.1,0.1-0.2,0.2-0.2,0.3c0,0.4,0,0.8,0,1.2c0,0.5-0.3,0.9-0.8,1
		c-0.6,0.1-1.2-0.3-1.2-0.9c0-0.1,0-0.2,0-0.3c0,0,0,0,0,0c0,0,0,0,0,0c0-0.5,0-1,0-1.5c0-0.3,0.1-0.6,0.2-0.8c0,0,0,0,0,0
		c0,0,0,0,0,0c0,0,0.1,0,0.1-0.1l0,0c0.2-0.1,0.3-0.2,0.5-0.3c0.4-0.1,0.7-0.3,1-0.5c0,0,0.1,0,0.1-0.1c0.7-0.4,1.4-0.7,2.1-1.1
		c1.3-0.7,2.5-1.3,3.8-2c0.6-0.3,1.2-0.5,1.9-0.6c0.8-0.2,1.6-0.2,2.4-0.2c0.9,0,1.7,0,2.6,0c0.2,0,0.3,0,0.4,0.1
		c0.4,0.2,0.7,0.6,0.6,1.1c-0.1,0.4-0.4,0.8-0.9,0.9c-0.1,0-0.2,0-0.3,0c-0.9,0-1.8,0-2.7,0c-0.8,0-1.7,0.1-2.5,0.3
		c-0.2,0-0.3,0.1-0.5,0.2c-0.4,0.2-0.9,0.5-1.3,0.7c-0.1,0-0.2,0.1-0.2,0.1c0.6-0.1,1.3,0,1.9,0c1.3,0,2.5,0.4,3.6,1.1
		c0.1,0.1,0.2,0.2,0.4,0.2c0.2,0.2,0.3,0.5,0.1,0.7c-0.2,0.2-0.5,0.3-0.7,0.1c-0.2-0.1-0.3-0.2-0.5-0.3c-0.8-0.6-1.7-0.8-2.7-0.8
		c0,0,0,0-0.1,0c0.4,0.9,0.3,1.6-0.4,2.2c-0.5,0.4-1.2,0.4-1.8,0c-0.7-0.5-0.9-1.1-0.7-1.9c-0.1,0-0.1,0-0.2,0
		c-0.9,0.4-1.7,1-2.2,1.8c0,0.1-0.1,0.1-0.1,0.2c-0.2,0.3-0.5,0.4-0.8,0.2c-0.3-0.2-0.3-0.5-0.2-0.8C36.7,32.4,36.9,32.1,37,31.9
		c0.1,0,0.1,0,0.1,0C37.1,31.8,37.1,31.8,37,31.9z M42.1,31.2c-0.2,0-0.4,0.2-0.4,0.4c0,0.2,0.2,0.4,0.4,0.4c0.2,0,0.4-0.2,0.4-0.4
		C42.6,31.4,42.4,31.2,42.1,31.2z M41.3,33c0.1,0,0.2-0.1,0.2-0.2c0-0.1-0.1-0.2-0.2-0.2c-0.1,0-0.2,0.1-0.2,0.3
		C41,32.9,41.1,33,41.3,33z"/>
	<path class="st0" d="M30.6,33.5c0,0.2,0,0.4,0,0.6c0,0.6-0.4,1-1,1c-0.6,0-1-0.4-1-1c0-0.4,0-0.8,0-1.2c0-0.1,0-0.2-0.1-0.2
		c-0.5-0.3-1-0.5-1.5-0.8c0,0-0.1,0-0.1,0c0,0,0,0,0,0c0.2,0.3,0.4,0.5,0.6,0.8c0.1,0.2,0.1,0.4,0,0.6c-0.1,0.2-0.3,0.2-0.5,0.2
		c-0.2,0-0.3-0.1-0.4-0.3c-0.3-0.4-0.6-0.8-1-1.2c-0.4-0.3-0.8-0.6-1.3-0.8c-0.1,0-0.1-0.1-0.2,0c0.1,0.4,0.1,0.9-0.1,1.3
		c-0.1,0.3-0.4,0.5-0.7,0.7c-0.6,0.3-1.3,0.3-1.8-0.2c-0.3-0.3-0.5-0.6-0.5-1c-0.1-0.4,0-0.8,0.2-1.1c-0.3,0-0.5,0-0.8,0
		c-0.8,0.1-1.5,0.4-2.2,0.9c-0.1,0.1-0.2,0.2-0.4,0.3c-0.3,0.2-0.6,0.1-0.7-0.2c-0.2-0.2-0.1-0.6,0.1-0.7c1.1-0.8,2.3-1.3,3.7-1.3
		c0.7,0,1.4,0,2.1,0c0-0.1-0.1-0.1-0.2-0.1c-0.4-0.2-0.8-0.4-1.2-0.6c-0.4-0.3-0.9-0.3-1.4-0.4c-0.6-0.1-1.2-0.2-1.8-0.2
		c-0.9,0-1.8,0-2.6,0c-0.2,0-0.3,0-0.4-0.1c-0.4-0.2-0.7-0.6-0.6-1.1c0-0.4,0.4-0.8,0.8-0.9c0.1,0,0.1,0,0.2,0c1.2,0,2.4,0,3.6,0
		c0.9,0.1,1.8,0.2,2.6,0.5c0.1,0,0.2,0.1,0.3,0.1c2.3,1.2,4.5,2.4,6.8,3.6c0.1,0,0.2,0.1,0.3,0.1c0,0,0,0,0.1,0
		c0.1,0.1,0.2,0.1,0.3,0.2c0,0,0,0,0,0c0.1,0.1,0.3,0.2,0.4,0.3c0,0,0,0.1,0,0c0.2,0.3,0.3,0.7,0.3,1c0,0.3,0,0.6,0,1
		C30.5,33.4,30.5,33.5,30.6,33.5z M21.9,32.1c0.2,0,0.4-0.2,0.4-0.4c0-0.2-0.2-0.4-0.4-0.4c-0.2,0-0.4,0.2-0.4,0.4
		C21.4,31.9,21.6,32.1,21.9,32.1z M22.8,33c0.1,0,0.2-0.1,0.2-0.2c0-0.1-0.1-0.2-0.2-0.2c-0.1,0-0.2,0.1-0.2,0.3
		C22.5,32.9,22.6,33,22.8,33z M26.8,31.8L26.8,31.8L26.8,31.8L26.8,31.8z"/>
</g>
</svg>
