<?xml version="1.0" encoding="utf-8"?>
<!-- Generator: Adobe Illustrator 23.0.5, SVG Export Plug-In . SVG Version: 6.00 Build 0)  -->
<svg version="1.1" id="Слой_1" xmlns="http://www.w3.org/2000/svg" xmlns:xlink="http://www.w3.org/1999/xlink" x="0px" y="0px"
	 viewBox="0 0 64 64" style="enable-background:new 0 0 64 64;" xml:space="preserve">
<style type="text/css">
	.st0{fill:#FF2400;}
</style>
<title>a</title>
<g>
	<path class="st0" d="M32,52.5V41.6l4-3c0.3,0,0.7,0,1.1,0c2.4,0.1,4.8-0.7,6.7-2.3c2.9-2.9,2.2-8.1,2.2-8.3c-0.1-0.6-0.5-1-1.1-1.1
		c-0.2,0-5.4-0.8-8.3,2.2c-2.3,2.3-2.3,5.9-2.3,7.5L32,38.4V27.5l4-3.2c0.3,0,0.7,0,1.1,0c2.4,0.1,4.8-0.7,6.7-2.3
		c2.9-2.9,2.2-8.1,2.2-8.3c-0.1-0.6-0.5-1-1.1-1.1c-0.2,0-5.4-0.7-8.3,2.2c-2.3,2.3-2.3,6-2.2,7.6L32,24.2v-9.5c1.2-1,3.8-3.7,3.8-7
		c0-4.1-4.2-7.3-4.4-7.4c-0.5-0.3-1.1-0.3-1.5,0c-0.2,0.1-4.4,3.3-4.4,7.4c0,3.3,2.7,6,3.8,7v15.9L27,28.8c0.1-1.6,0.1-5.3-2.2-7.6
		c-2.8-2.9-8-2.2-8.3-2.2c-0.6,0.1-1,0.5-1.1,1.1c0,0.2-0.8,5.4,2.2,8.3c1.9,1.6,4.2,2.4,6.7,2.3c0.4,0,0.8,0,1.1,0l4,3.2v10.9
		l-2.3-1.7c0.1-1.6,0-5.3-2.3-7.5c-2.9-2.9-8.1-2.2-8.3-2.2c-0.6,0.1-1,0.5-1.1,1.1c0,0.2-0.8,5.4,2.2,8.3c1.9,1.6,4.2,2.4,6.7,2.3
		c0.4,0,0.8,0,1.1,0l4,2.9v4.5C14.7,52.9,0,56.4,0,62.7C0,63.4,0.6,64,1.3,64h61.4c0.7,0,1.3-0.6,1.3-1.3C64,56.1,47.5,52.5,32,52.5
		z M38.4,31c1.5-1.1,3.3-1.7,5.1-1.5c0.2,1.8-0.4,3.7-1.5,5.1c-1.4,1.4-3.8,1.5-5.1,1.5C36.7,34.2,37.3,32.4,38.4,31z M38.4,16.6
		c1.5-1.1,3.3-1.7,5.1-1.5c0,1.4-0.1,3.8-1.5,5.1c-1.4,1.4-3.8,1.5-5.1,1.5C36.7,19.9,37.3,18.1,38.4,16.6z M19.4,26.6
		c-1.4-1.4-1.5-3.8-1.5-5.1c1.8-0.2,3.7,0.4,5.1,1.5c1.1,1.5,1.7,3.3,1.5,5.1C22.7,28.3,20.9,27.8,19.4,26.6z M19.4,41
		c-1.1-1.5-1.7-3.3-1.5-5.1c1.8-0.2,3.7,0.4,5.1,1.5c1.1,1.5,1.7,3.3,1.5,5.1C23.2,42.5,20.8,42.4,19.4,41L19.4,41z M28.2,7.7
		c0.2-1.8,1.1-3.5,2.6-4.7c1.4,1.2,2.3,2.9,2.6,4.7c-0.2,1.8-1.1,3.5-2.6,4.7C29.3,11.2,28.4,9.5,28.2,7.7z M3.1,61.4
		c2.4-3,13-6.4,28.9-6.4s26.5,3.4,28.9,6.4H3.1z"/>
</g>
</svg>
