<?xml version="1.0" encoding="utf-8"?>
<!-- Generator: Adobe Illustrator 23.0.5, SVG Export Plug-In . SVG Version: 6.00 Build 0)  -->
<svg version="1.1" id="Layer_1" xmlns="http://www.w3.org/2000/svg" xmlns:xlink="http://www.w3.org/1999/xlink" x="0px" y="0px"
	 viewBox="0 0 15.2 14" style="enable-background:new 0 0 15.2 14;" xml:space="preserve">
<style type="text/css">
	.st0{fill:#23589D;}
	.st1{fill:#FFFFFF;}
</style>
<g>
	<path class="st0" d="M12.9,14H2.2c-1.2,0-2.2-1-2.2-2.2V2.2C0.1,1,1.1,0,2.2,0h10.7c1.2,0,2.2,1,2.2,2.2v9.7
		C15.1,13,14.1,14,12.9,14z"/>
	<path class="st1" d="M9.3,3.5c0.5,0,1.1,0,1.6,0c0-0.8,0-1.5,0-2.3c-0.6,0-1.3,0-1.9,0C6.8,1.3,6.1,2.8,6.3,5.3H5v2.4h1.3
		c0,2.1,0,4.2,0,6.3c0.9,0,1.7,0,2.6,0c0-2.1,0-4.2,0-6.3h1.9V5.3H8.9C8.9,4.6,8.9,3.7,9.3,3.5z"/>
</g>
</svg>
