<?xml version="1.0" encoding="utf-8"?>
<!-- Generator: Adobe Illustrator 23.0.5, SVG Export Plug-In . SVG Version: 6.00 Build 0)  -->
<svg version="1.1" id="Layer_1" xmlns="http://www.w3.org/2000/svg" xmlns:xlink="http://www.w3.org/1999/xlink" x="0px" y="0px"
	 viewBox="0 0 15.2 14" style="enable-background:new 0 0 15.2 14;" xml:space="preserve">
<style type="text/css">
	.st0{fill:#03A9F4;}
	.st1{fill:#FFFFFF;}
</style>
<path class="st0" d="M13,14H2.3c-1.2,0-2.2-1-2.2-2.2V2.2C0.1,1,1.1,0,2.3,0H13c1.2,0,2.2,1,2.2,2.2v9.7C15.2,13,14.2,14,13,14z"/>
<path class="st1" d="M12.9,3.6c-0.4,0.2-0.8,0.3-1.3,0.4c0.5-0.3,0.8-0.7,1-1.2c-0.4,0.3-0.9,0.4-1.4,0.5c-0.4-0.4-1-0.7-1.6-0.7
	c-1.2,0-2.2,1-2.2,2.2c0,0.2,0,0.3,0.1,0.5C5.7,5.2,4,4.3,3,3C2.8,3.3,2.7,3.7,2.7,4.1c0,0.8,0.4,1.4,1,1.8c-0.4,0-0.7-0.1-1-0.3v0
	c0,1.1,0.8,2,1.8,2.2C4.2,7.9,4,7.9,3.8,7.9c-0.1,0-0.3,0-0.4,0c0.3,0.9,1.1,1.5,2.1,1.5c-0.8,0.6-1.7,0.9-2.7,0.9
	c-0.2,0-0.4,0-0.5,0c1,0.7,2.1,1,3.4,1c4,0,6.3-3.4,6.3-6.3c0-0.1,0-0.2,0-0.3C12.3,4.5,12.6,4.1,12.9,3.6z"/>
</svg>
