<?xml version="1.0" encoding="utf-8"?>
<!-- Generator: Adobe Illustrator 23.0.5, SVG Export Plug-In . SVG Version: 6.00 Build 0)  -->
<svg version="1.1" id="Layer_1" xmlns="http://www.w3.org/2000/svg" xmlns:xlink="http://www.w3.org/1999/xlink" x="0px" y="0px"
	 viewBox="0 0 15.2 14" style="enable-background:new 0 0 15.2 14;" xml:space="preserve">
<style type="text/css">
	.st0{fill:#FFFFFF;}
	.st1{fill:#BC180F;}
</style>
<rect x="3.4" y="2.8" class="st0" width="9" height="8.6"/>
<path class="st1" d="M12.5,0H2.7C1.2,0,0,1.2,0,2.7v8.6C0,12.8,1.2,14,2.7,14h9.8c1.5,0,2.7-1.2,2.7-2.7V2.7C15.2,1.2,14,0,12.5,0z
	 M4.7,10.4V3.6L11.5,7L4.7,10.4z"/>
<path class="st1" d="M12.5,0H2.7C1.2,0,0,1.2,0,2.7v8.6C0,12.8,1.2,14,2.7,14h9.8c1.5,0,2.7-1.2,2.7-2.7V2.7C15.2,1.2,14,0,12.5,0z
	 M4.7,10.4V3.6L11.5,7L4.7,10.4z"/>
</svg>
