<?xml version="1.0" encoding="utf-8"?>
<!-- Generator: Adobe Illustrator 23.0.5, SVG Export Plug-In . SVG Version: 6.00 Build 0)  -->
<svg version="1.1" id="Слой_1" xmlns="http://www.w3.org/2000/svg" xmlns:xlink="http://www.w3.org/1999/xlink" x="0px" y="0px"
	 viewBox="0 0 317.6 64" style="enable-background:new 0 0 317.6 64;" xml:space="preserve">
<style type="text/css">
	.st0{fill:#FFFFFF;}
</style>
<title>Space-station-death-star-war</title>
<g>
	<g>
		<path class="st0" d="M13.5,42.2V16.1c0-0.9,0.7-1.7,2.2-2.3c1.5-0.6,3.2-0.9,5.1-0.9c1.1,0,2.2,0.1,3.1,0.4c1,0.3,1.7,0.6,2.3,1
			c0.7,0.9,1.4,1.8,2,2.8c0.6,0.9,1.9,3.1,4,6.6c0.2,0,0.4-0.1,0.5-0.2c0.2-0.1,0.2-0.3,0.2-0.6c0-0.3-0.2-0.7-0.7-1.5l-2.8-4.8
			v-1.4c0.9-0.7,2-1.3,3.2-1.7c1.3-0.4,2.6-0.6,3.9-0.6c2.2,0,4,0.4,5.3,1.2c1.6,1,2.4,2.5,2.4,4.5v24.7c0,1.5-0.7,2.6-2.1,3.3
			c-1.2,0.6-2.8,0.9-4.9,0.9c-1.1,0-2.2-0.1-3.3-0.4c-1.1-0.2-1.9-0.6-2.5-0.9c-1.2-1.6-2.5-3.4-3.7-5.3l-2.7-4.4
			c-0.5,0.1-0.8,0.3-0.8,0.8c0,0.3,0.3,0.9,0.8,1.7l3.3,5.3v1.4c-2,1.3-4.3,2-6.8,2s-4.5-0.5-5.9-1.4C14.2,45.2,13.5,43.9,13.5,42.2
			z"/>
		<path class="st0" d="M61.5,47.9c-4.8,0-8.6-1.3-11.4-4c-2.9-2.7-4.3-6.4-4.3-11.1c0-4.7,1.5-8.4,4.4-11.1
			c2.7-2.6,6.1-3.8,10.3-3.8c4.2,0,7.5,1.1,10,3.4c2.5,2.3,3.8,5.1,3.8,8.4c0,3-1,5.2-3.1,6.7c-1.9,1.4-4.5,2.1-7.8,2.1
			c-2.5,0-4.6-0.5-6.3-1.5c-0.1,0.1-0.2,0.3-0.2,0.6c0,0.5,0.7,1,2.1,1.4c1.4,0.5,2.9,0.7,4.7,0.7s3.3-0.2,4.8-0.7
			c1.4-0.4,2.6-1,3.5-1.6c0.4,0.4,0.8,1,1,2c0.3,1,0.4,1.9,0.4,2.7c0,0.8-0.1,1.5-0.2,2.2c-1.4,1.1-2.7,2-4.2,2.5
			C66.8,47.5,64.4,47.9,61.5,47.9z M61.1,30.2c0.9,0,1.3-0.3,1.3-1c0-0.6-0.5-0.9-1.4-0.9c-0.9,0-1.5,0.5-1.6,1.5
			C60,30.1,60.5,30.2,61.1,30.2z"/>
		<path class="st0" d="M88.1,32.5c0,1,0,1.7,0.1,2c0.1,0.6,0.4,0.8,0.9,0.8h0.2c0.1,0,0.1,0,0.2-0.1c-0.1-0.5-0.1-1.1-0.1-2
			s0-2.3,0.1-4.4c0.1-2,0.1-5,0.1-8.8c1.7-1.2,3.7-1.8,5.9-1.8c1.7,0,3.2,0.3,4.3,1c1.1,0.7,1.9,1.6,2.4,2.9c0,0.6-0.1,1.8-0.2,3.6
			c-0.4,4.4-0.9,7.7-1.6,9.9c0.2,0.1,0.4,0.2,0.6,0.2c0.2,0,0.4-0.1,0.5-0.2c0.5-0.6,1-2.6,1.4-6.2c0.4-3.5,0.6-6.1,0.7-8
			c0-0.7,0-1.2,0.1-1.5c0.7-0.5,1.5-0.9,2.6-1.2c1.1-0.3,2.3-0.5,3.5-0.5c2,0,3.7,0.6,5,1.7c1.3,1.1,1.9,2.6,1.9,4.5
			c0,1.4-0.3,3.3-0.8,5.7c-0.6,2.4-1.3,5-2.3,7.7c-1,2.7-1.7,4.6-2.3,5.7c-0.8,1.5-1.8,2.5-3,3c-1.2,0.5-2.9,0.8-5.4,0.8
			c-0.7,0-1.7-0.1-2.8-0.2c-1.2-0.2-2-0.3-2.4-0.5c-0.4-0.6-0.8-1.5-1.3-2.6c-0.5-1.1-0.8-2-1.1-2.7c-0.7,0.1-1,0.4-1,0.9
			c0,0.1,0.1,0.5,0.3,1.2c0.2,0.6,0.4,1.1,0.5,1.3c-0.1,0.1-0.2,0.4-0.4,0.8c-0.2,0.4-0.4,0.8-0.7,1.2c-1.3,0.5-3.3,0.7-5.8,0.7
			c-2.5,0-4.7-0.4-6.5-1.1c-1.4-1.9-2.6-4.2-3.6-6.9c-1-2.7-1.9-6.1-2.6-10.2c-1.1-1.5-1.7-3.3-1.7-5.4c0-2.1,0.5-3.9,1.6-5.5H82
			c2.5,0,4.2,0.6,5.2,1.7c0.7,0.9,1.1,2.4,1.1,4.4L88.1,32.5z"/>
		<path class="st0" d="M198.9,47.4c-2.1,0-3.7-0.4-5-1.1c-1.4-0.8-2.1-1.9-2.1-3.5V29.4c-1-1.4-1.5-3.2-1.5-5.3s0.5-3.9,1.5-5.5h4
			c2.1,0,3.5,0.7,4.4,2c-0.4,0.5-0.8,1.1-1.1,1.9c-0.3,0.7-0.5,1.3-0.5,1.6c0,0.3,0.1,0.6,0.2,0.7c0.2,0.2,0.4,0.2,0.7,0.2
			c0.6-2.4,1.8-4.2,3.5-5.3c1.4-1,3.1-1.4,5.2-1.4c2.6,0,4.6,0.5,6,1.6c0.5,1.4,0.8,3.1,0.8,5.1s-0.4,3.8-1.2,5.5
			c-0.6,0.3-1.4,0.6-2.5,0.8c-1,0.2-2.1,0.3-3.2,0.3c-1.1,0-2-0.1-2.9-0.2c-0.8-0.1-1.5-0.3-1.8-0.4c-0.1,0.1-0.2,0.3-0.2,0.6
			s0.2,0.5,0.5,0.6c0.3,0.1,0.9,0.3,1.7,0.4v13.1C203.7,46.8,201.5,47.4,198.9,47.4z"/>
		<path class="st0" d="M228.8,13.2c0.9-1.1,1.9-1.9,3-2.4c1.1-0.5,2.5-0.8,4.2-0.8c2.1,0,3.8,0.6,5.1,1.7c1.3,1.3,2,2.9,2,5.1v17.2
			c0,2.6,0.6,4.3,1.9,5.1c0,0.1,0,0.3,0,0.5v0.5c0,2.5-0.7,4.4-2.2,5.8c-1.3,1.2-3,1.8-4.9,1.8c-1.4,0-2.5-0.3-3.5-0.9
			c-1.2-0.7-2-1.6-2.5-2.7c-0.6,0-0.9,0.3-0.9,0.9c0,0.3,0.1,0.6,0.3,0.9c0.2,0.3,0.5,0.6,0.8,0.9c-1,0.6-2.4,0.9-4,0.9
			c-2.2,0-4.3-0.5-6.2-1.5c-1.9-1-3.4-2.6-4.6-4.6c-1.3-2.3-2-5.2-2-8.5c0-4.4,1.2-7.9,3.7-10.5c2.5-2.5,5.7-3.8,9.6-3.8
			c2.3,0,4.3,0.4,6,1.3c0.2-0.2,0.3-0.4,0.3-0.6c0-0.5-0.6-1-1.9-1.3c-1.2-0.4-2.5-0.5-3.7-0.5C229.5,15.6,229.3,14.2,228.8,13.2z
			 M230.7,28.6c-0.2-0.2-0.4-0.3-0.6-0.3c-0.4,0-0.6,0.3-0.8,0.8c-0.1,0.5-0.2,1.7-0.2,3.3v2.7c0,0.5,0.1,0.8,0.2,1
			c0.1,0.2,0.3,0.3,0.6,0.3c0.3,0,0.5-0.1,0.6-0.2v-3.5C230.5,31,230.5,29.6,230.7,28.6z"/>
		<path class="st0" d="M261.1,47.9c-4.8,0-8.6-1.3-11.4-4c-2.9-2.7-4.3-6.4-4.3-11.1c0-4.7,1.5-8.4,4.4-11.1
			c2.7-2.6,6.1-3.8,10.3-3.8c4.2,0,7.5,1.1,10,3.4c2.5,2.3,3.8,5.1,3.8,8.4c0,3-1,5.2-3.1,6.7c-1.9,1.4-4.5,2.1-7.8,2.1
			c-2.5,0-4.6-0.5-6.3-1.5c-0.1,0.1-0.2,0.3-0.2,0.6c0,0.5,0.7,1,2.1,1.4c1.4,0.5,2.9,0.7,4.7,0.7c1.7,0,3.3-0.2,4.8-0.7
			c1.4-0.4,2.6-1,3.5-1.6c0.4,0.4,0.8,1,1,2c0.3,1,0.4,1.9,0.4,2.7c0,0.8-0.1,1.5-0.2,2.2c-1.4,1.1-2.7,2-4.2,2.5
			C266.4,47.5,264,47.9,261.1,47.9z M260.8,30.2c0.9,0,1.3-0.3,1.3-1c0-0.6-0.5-0.9-1.4-0.9c-0.9,0-1.5,0.5-1.6,1.5
			C259.6,30.1,260.1,30.2,260.8,30.2z"/>
		<path class="st0" d="M282.9,47.4c-2.1,0-3.7-0.4-5-1.1c-1.4-0.8-2.1-1.9-2.1-3.5V29.4c-1-1.4-1.5-3.2-1.5-5.3s0.5-3.9,1.5-5.5h4
			c2.1,0,3.5,0.7,4.4,2c-0.4,0.5-0.8,1.1-1.1,1.9c-0.3,0.7-0.5,1.3-0.5,1.6c0,0.3,0.1,0.6,0.2,0.7c0.2,0.2,0.4,0.2,0.7,0.2
			c0.6-2.4,1.8-4.2,3.5-5.3c1.4-1,3.1-1.4,5.2-1.4c2.6,0,4.6,0.5,6,1.6c0.5,1.4,0.8,3.1,0.8,5.1s-0.4,3.8-1.2,5.5
			c-0.6,0.3-1.4,0.6-2.5,0.8c-1,0.2-2.1,0.3-3.2,0.3c-1.1,0-2-0.1-2.9-0.2c-0.8-0.1-1.5-0.3-1.8-0.4c-0.1,0.1-0.2,0.3-0.2,0.6
			s0.2,0.5,0.5,0.6c0.3,0.1,0.9,0.3,1.7,0.4v13.1C287.7,46.8,285.5,47.4,282.9,47.4z"/>
	</g>
	<g>
		<path class="st0" d="M126.3,33.7c0-1.2,0-2.3,0-3.5c0.1-0.6,0.2-1.3,0.2-1.9c2.2-16.2,18-26.9,33.9-22.9
			c14.4,3.6,23.3,18,20.1,32.5c-2.4,10.9-11.1,19.2-22.1,21.1c-1,0.2-2,0.3-3,0.4c-1.2,0-2.3,0-3.5,0c-0.5-0.1-0.9-0.1-1.4-0.2
			c-11.7-1.3-21.4-10.2-23.7-21.8C126.6,36.2,126.5,34.9,126.3,33.7z M167.2,21.5c-2.4,1.8-4.6,3.5-6.9,5.2
			c-1.4-1.7-3.2-2.7-5.3-3.1c0.3-2.8,0.7-5.6,1-8.5c-1.5,0-3,0-4.5,0c0.3,2.9,0.7,5.7,1,8.5c-2.2,0.4-3.9,1.4-5.3,3.1
			c-2.3-1.7-4.5-3.4-6.8-5.1c-0.9,1.2-1.7,2.5-2.2,3.9c2.6,1.1,5.2,2.2,7.6,3.3c-0.2,1.1-0.4,2.1-0.4,3.2c0,1,0.2,2,0.4,3.1
			c-2.5,1.1-5,2.2-7.7,3.3c0.8,1.3,1.5,2.6,2.3,3.9c2.3-1.8,4.6-3.4,6.8-5.1c1.9,1.9,1.9,1.9,5.4,3.2c-0.3,2.7-0.7,5.5-1,8.3
			c1.5,0,3,0,4.5,0c0-0.3-0.1-0.6-0.1-0.8c-0.3-2.4-0.6-4.7-0.9-7.1c0-0.4,0-0.5,0.4-0.6c1.8-0.4,3.2-1.2,4.5-2.5
			c0.1-0.1,0.3-0.3,0.4-0.5c2.3,1.7,4.5,3.4,6.8,5.1c0.8-1.3,1.5-2.6,2.2-3.9c-2.7-1.2-5.3-2.3-7.8-3.4c0.8-2.1,0.7-4.1,0-6.2
			c2.6-1.1,5.2-2.2,7.9-3.4C168.7,24.1,168,22.9,167.2,21.5z M134.1,19.3c1-1.2,1.9-2.4,3-3.8c0.5,0.6,0.8,1,1.2,1.5
			c2.9-2.9,6.2-4.9,10.1-5.9c-0.1-0.6-0.3-1.2-0.4-1.9c1.6-0.2,3.1-0.5,4.6-0.7c0-0.6-0.1-1.1-0.1-1.7c-6.1-0.8-17.1,5.6-19.9,11.5
			C133.1,18.6,133.6,19,134.1,19.3z M131.3,20.4c-2.3,4.6-3.2,9.4-2.6,14.4c0.3,3,1.2,5.9,2.6,8.6c0.6-0.3,1.1-0.6,1.6-0.8
			c-0.6-1.5-1.1-2.9-1.7-4.3c0.7-0.2,1.3-0.4,1.8-0.5c-1.1-3.9-1.1-7.8,0-11.6c-0.6-0.2-1.2-0.3-1.8-0.6c0.6-1.5,1.1-2.9,1.7-4.3
			C132.4,21,131.9,20.7,131.3,20.4z M176.2,43.4c2.1-4.1,3-8.4,2.7-13c-0.2-3.5-1.1-6.8-2.7-10c-0.6,0.3-1.1,0.6-1.6,0.8
			c0.6,1.5,1.1,2.9,1.7,4.3c-0.7,0.2-1.3,0.4-1.8,0.6c1.1,3.9,1.1,7.7,0,11.6c0.6,0.2,1.2,0.4,1.8,0.6c-0.6,1.5-1.1,2.9-1.7,4.3
			C175,42.9,175.6,43.2,176.2,43.4z M148.4,52.8c-3.9-1-7.2-3-10.1-5.8c-0.5,0.4-0.9,0.9-1.4,1.3c-1-1.2-1.9-2.4-2.9-3.6
			c-0.5,0.3-1,0.6-1.5,1c1.5,3,5.8,6.9,9.8,8.8c3.2,1.6,6.5,2.5,10.1,2.7c0-0.6,0.1-1.2,0.1-1.8c-1.6-0.2-3.1-0.5-4.6-0.7
			c0.1-0.4,0.2-0.7,0.3-1C148.3,53.4,148.4,53.1,148.4,52.8z M159,11.1c3.9,1,7.3,3,10.1,5.8c0.5-0.5,0.9-0.9,1.4-1.3
			c1,1.2,1.9,2.4,2.9,3.6c0.5-0.3,1-0.6,1.4-1C172,12.4,161.1,6.1,155,6.9c0,0.6-0.1,1.1-0.1,1.7c1.5,0.2,3,0.5,4.6,0.7
			C159.3,10,159.2,10.5,159,11.1z M159.5,54.6c-0.8,0.2-1.6,0.3-2.3,0.4c-0.8,0.1-1.5,0.2-2.3,0.3c0,0.6,0.1,1.2,0.1,1.8
			c6.3,0.6,17.3-5.7,19.9-11.5c-0.5-0.3-1-0.7-1.4-1c-1,1.2-1.9,2.4-3,3.8c-0.5-0.6-0.8-1-1.2-1.5c-2.9,3-6.3,4.9-10.2,5.9
			C159.2,53.4,159.3,53.9,159.5,54.6z"/>
	</g>
</g>
</svg>
