<?xml version="1.0" encoding="utf-8"?>
<!-- Generator: Adobe Illustrator 23.0.5, SVG Export Plug-In . SVG Version: 6.00 Build 0)  -->
<svg version="1.1" id="Слой_1" xmlns="http://www.w3.org/2000/svg" xmlns:xlink="http://www.w3.org/1999/xlink" x="0px" y="0px"
	 viewBox="0 0 211 42.2" style="enable-background:new 0 0 211 42.2;" xml:space="preserve">
<style type="text/css">
	.st0{fill:#FFFFFF;}
	.st1{fill:#751612;}
	.st2{fill:#A3A3A3;}
	.st3{fill:#821E16;}
	.st4{fill:#FFCB9C;}
</style>
<title>Space-station-death-star-war</title>
<g>
	<path class="st0" d="M16.1,13.7v1c-0.6,1.2-1,2.1-1.3,2.8c-0.3,0.7-0.4,1.1-0.4,1.4c0,0.4,0.2,0.6,0.7,0.6l4.2-9.3c1-0.6,2.3-1,4-1
		c1.7,0,3.2,0.5,4.4,1.4c1.3,1.1,2,2.5,2,4.3c0,1.5-0.5,3-1.6,4.5c-1,1.5-2.4,2.8-4.1,3.8c-0.8-0.4-1.5-0.7-2.1-0.7
		c-0.6,0-0.9,0.3-0.9,0.9c0.7,0.1,1.3,0.3,1.8,0.5c0.5,0.2,1.2,0.7,1.9,1.4l5.7,5.2c-0.4,4.6-2.7,6.9-6.9,6.9c-1.6,0-2.9-0.4-4-1.2
		c-1.3-0.9-2.3-2.3-3.1-4.2l-2-5h-0.1c-0.5,0-0.7,0.2-0.7,0.6c0,0.3,0.2,0.9,0.6,1.9c0.4,1.1,1,2.5,1.8,4.3v1.6
		c-1.5,1.3-3.7,2-6.5,2c-1.5,0-2.9-0.4-4-1c-1.2-0.8-1.9-1.8-1.9-3.2V11.3c1.5-1.3,3.7-2,6.7-2c1.6,0,2.9,0.3,4,1
		C15.5,11,16.1,12.2,16.1,13.7z"/>
	<path class="st0" d="M33.7,34.9c-2.3-2.3-3.5-5.3-3.5-9.2c0-3.9,1.1-6.9,3.3-9.1c2.2-2.2,5.1-3.4,8.7-3.4c3.6,0,6.5,1.2,8.7,3.5
		c2.2,2.3,3.3,5.4,3.3,9.1c0,3.7-1.1,6.7-3.2,8.9c-2.1,2.2-5,3.3-8.6,3.3C38.7,38,35.8,36.9,33.7,34.9z M41.7,25.4v3.7
		c0.1,0.1,0.3,0.1,0.5,0.1c0.2,0,0.4-0.1,0.5-0.2c0.1-0.2,0.1-0.4,0.1-0.8v-3.1c0-1.4-0.1-2.3-0.2-2.7c-0.1-0.4-0.3-0.7-0.6-0.7
		c-0.2,0-0.4,0.1-0.5,0.2C41.6,23.4,41.7,24.5,41.7,25.4z"/>
	<path class="st0" d="M57.2,23.8h1.3c0.7,0,1.1-0.2,1.1-0.7c0-0.1,0-0.1,0-0.3h-4.8c-0.3-1-0.5-2.1-0.5-3.4c0-1.2,0.1-2.2,0.3-3
		c0.8-0.5,1.9-1.3,3.4-2.4c0.4-1,0.9-2.5,1.6-4.6c0.1-0.3,0.2-0.6,0.3-0.8c1.1-0.3,2.4-0.4,3.8-0.4c1.4,0,2.8,0.2,4.2,0.4v5.2h3.7
		c0.8,1.3,1.2,2.7,1.2,4.4c0,0.8-0.1,1.6-0.3,2.4c-0.2,0.8-0.5,1.5-0.9,2.1h-3.1V26c0,1.8,0.8,2.7,2.3,2.7h0.9
		c0.3,1.1,0.4,2,0.4,2.8c0,2-0.6,3.5-1.9,4.5c-1.2,1-3,1.6-5.4,1.6c-2.3,0-4.2-0.7-5.6-2c-1.4-1.3-2.1-3.2-2.1-5.8V23.8z"/>
	<path class="st0" d="M84.7,18v8.5c0,2.1,0.5,3.5,1.5,4.2c0,0.1,0,0.2,0,0.4v0.4c0,2.1-0.6,3.7-1.7,4.7c-1.1,1-2.5,1.5-4.2,1.5
		c-1.8,0-3.2-0.5-4.4-1.5c-1.4-1.3-2.2-3.1-2.2-5.6V16.7c0.3-0.2,0.5-0.3,0.8-0.4c0.3-0.1,0.6-0.3,0.9-0.4c-0.6-0.3-1.2-0.9-1.7-1.6
		c-0.5-0.8-0.7-1.7-0.7-2.7c0-1.8,0.6-3.3,1.8-4.4c1.2-1.1,2.6-1.7,4.4-1.7c1.7,0,3.2,0.6,4.3,1.7c1.2,1.2,1.7,2.6,1.7,4.4
		c0,1.4-0.4,2.7-1.3,3.7c-0.9,1.1-2,1.7-3.2,2c0,0.5,0.2,0.8,0.6,0.8c0.7,0,1.5-0.3,2.2-0.9C84.3,17.6,84.6,17.9,84.7,18z"/>
	<path class="st0" d="M109.6,26.7c0,1,0.1,1.9,0.3,2.5c0.2,0.6,0.6,1.1,1.2,1.5c0,0.1,0,0.2,0,0.4v0.4c0,2-0.6,3.5-1.7,4.6
		c-1.1,1.1-2.6,1.6-4.4,1.6c-1.8,0-3.2-0.5-4.4-1.5c-1.3-1.2-1.9-2.9-1.9-5.3c0-1,0-1.9,0.1-2.6c0.1-0.8,0.2-1.3,0.2-1.6
		c0-0.3,0.1-0.6,0.1-0.9c0-0.3,0.1-0.7,0.1-1.3c0-0.6-0.1-1-0.2-1.2c-0.1-0.2-0.4-0.4-0.6-0.4c-0.3,0-0.5,0.1-0.7,0.2l0.3,3.5
		c-0.3,1.4-0.4,3-0.4,4.6c0,1.6,0.4,3.1,1.1,4.4c-1.4,1.4-3.4,2.2-5.9,2.2c-1.4,0-2.7-0.4-3.7-1.1c-1.2-0.9-1.8-2-1.8-3.4v-25
		c0.7-0.4,1.5-0.7,2.5-1c1-0.3,1.9-0.4,2.9-0.4c1.6,0,3,0.3,4.1,1c1.2,0.8,1.8,1.8,1.8,3.3v2c-1.2,0.1-2.4,0.4-3.6,1.1
		c-1,0.6-1.5,1.1-1.5,1.6c0,0.2,0.1,0.3,0.2,0.4c0.1,0.1,0.2,0.2,0.4,0.2c0.6-0.7,1.4-1.3,2.5-1.8c1.1-0.5,2.4-0.7,3.9-0.7
		c1.5,0,2.8,0.2,4,0.7c1.5,0.6,2.7,1.4,3.6,2.6c1,1.4,1.6,3.2,1.6,5.4L109.6,26.7z"/>
	<path class="st0" d="M133.6,26.7c0,1,0.1,1.9,0.3,2.5c0.2,0.6,0.6,1.1,1.2,1.5c0,0.1,0,0.2,0,0.4v0.4c0,2-0.6,3.6-1.8,4.7
		c-1.1,1-2.4,1.5-4,1.5c-1.1,0-2.1-0.3-3-0.8c-0.9-0.5-1.5-1.3-1.9-2.2c-0.5,0-0.7,0.2-0.7,0.7c0,0.4,0.2,0.8,0.8,1.3
		c-0.9,0.6-2.3,0.9-4.2,0.9c-2.6,0-4.8-0.7-6.3-2.2c-1.6-1.4-2.4-3.4-2.4-6c0-2.6,0.8-4.6,2.5-6c1.5-1.3,3.5-1.9,5.9-1.9
		c0.8,0,1.6,0.1,2.4,0.2c0.5,0.1,0.8,0.2,0.8,0.2c0-0.1,0.1-0.3,0.1-0.4c0-0.4-0.3-0.6-0.9-0.7c-0.6-0.1-1.4-0.2-2.5-0.2
		c-2.2,0-4,0.4-5.5,1.3c-0.7-1.2-1-2.7-1-4.5c0-1,0.1-1.8,0.4-2.3c1-0.5,2.3-0.9,3.9-1.3c1.6-0.4,3.3-0.5,5-0.5
		c3.6,0,6.4,0.8,8.2,2.4c1.9,1.6,2.8,3.8,2.8,6.7V26.7z M122.4,27.7c-0.6,0-0.9,0.3-0.9,0.8c0,0.5,0.3,0.8,1,0.8
		c0.5,0,0.8-0.1,1.1-0.4c0.2-0.2,0.3-0.6,0.3-1.2H122.4z"/>
	<path class="st0" d="M152.3,23.8h1.3c0.7,0,1.1-0.2,1.1-0.7c0-0.1,0-0.1,0-0.3h-4.8c-0.3-1-0.5-2.1-0.5-3.4c0-1.2,0.1-2.2,0.3-3
		c0.8-0.5,1.9-1.3,3.4-2.4c0.4-1,0.9-2.5,1.6-4.6c0.1-0.3,0.2-0.6,0.3-0.8c1.1-0.3,2.4-0.4,3.8-0.4c1.4,0,2.8,0.2,4.2,0.4v5.2h3.7
		c0.8,1.3,1.2,2.7,1.2,4.4c0,0.8-0.1,1.6-0.3,2.4c-0.2,0.8-0.5,1.5-0.9,2.1h-3.1V26c0,1.8,0.8,2.7,2.3,2.7h0.9
		c0.3,1.1,0.4,2,0.4,2.8c0,2-0.6,3.5-1.9,4.5c-1.2,1-3,1.6-5.4,1.6c-2.3,0-4.2-0.7-5.6-2c-1.4-1.3-2.1-3.2-2.1-5.8V23.8z"/>
	<path class="st0" d="M179.8,18v8.5c0,2.1,0.5,3.5,1.5,4.2c0,0.1,0,0.2,0,0.4v0.4c0,2.1-0.6,3.7-1.7,4.7c-1.1,1-2.5,1.5-4.2,1.5
		c-1.8,0-3.2-0.5-4.4-1.5c-1.4-1.3-2.2-3.1-2.2-5.6V16.7c0.3-0.2,0.5-0.3,0.8-0.4c0.3-0.1,0.6-0.3,0.9-0.4c-0.6-0.3-1.2-0.9-1.7-1.6
		c-0.5-0.8-0.7-1.7-0.7-2.7c0-1.8,0.6-3.3,1.8-4.4c1.2-1.1,2.6-1.7,4.4-1.7s3.2,0.6,4.3,1.7c1.2,1.2,1.7,2.6,1.7,4.4
		c0,1.4-0.4,2.7-1.3,3.7c-0.9,1.1-2,1.7-3.2,2c0,0.5,0.2,0.8,0.6,0.8c0.7,0,1.5-0.3,2.2-0.9C179.3,17.6,179.7,17.9,179.8,18z"/>
	<path class="st0" d="M204,26.7c0,1,0.1,1.9,0.3,2.5c0.2,0.6,0.6,1.1,1.2,1.5c0,0.1,0,0.2,0,0.4v0.4c0,2-0.6,3.6-1.8,4.7
		c-1.1,1-2.4,1.5-4,1.5c-1.1,0-2.1-0.3-3-0.8c-0.9-0.5-1.5-1.3-1.9-2.2c-0.5,0-0.7,0.2-0.7,0.7c0,0.4,0.2,0.8,0.8,1.3
		c-0.9,0.6-2.3,0.9-4.2,0.9c-2.6,0-4.8-0.7-6.3-2.2c-1.6-1.4-2.4-3.4-2.4-6c0-2.6,0.8-4.6,2.5-6c1.5-1.3,3.5-1.9,5.9-1.9
		c0.8,0,1.6,0.1,2.4,0.2c0.5,0.1,0.8,0.2,0.8,0.2c0-0.1,0.1-0.3,0.1-0.4c0-0.4-0.3-0.6-0.9-0.7c-0.6-0.1-1.4-0.2-2.5-0.2
		c-2.2,0-4,0.4-5.5,1.3c-0.7-1.2-1-2.7-1-4.5c0-1,0.1-1.8,0.4-2.3c1-0.5,2.3-0.9,3.9-1.3c1.6-0.4,3.3-0.5,5-0.5
		c3.6,0,6.4,0.8,8.2,2.4c1.9,1.6,2.8,3.8,2.8,6.7V26.7z M192.8,27.7c-0.6,0-0.9,0.3-0.9,0.8c0,0.5,0.3,0.8,1,0.8
		c0.5,0,0.8-0.1,1.1-0.4c0.2-0.2,0.3-0.6,0.3-1.2H192.8z"/>
	<g>
		<circle class="st1" cx="139.4" cy="11.2" r="1.9"/>
		<path class="st2" d="M149.9,28.6c-1.5,0-2.3-0.9-2.3-2.7v-1.8h-11.3v5.8c0,2.5,0.7,4.5,2.1,5.8c1.4,1.3,3.3,2,5.6,2
			c2.3,0,4.1-0.5,5.4-1.6c1.2-1,1.9-2.6,1.9-4.5c0-0.8-0.1-1.7-0.4-2.8H149.9z"/>
		<path class="st3" d="M135.2,22.7c4.5-0.5,9,0.5,13.5-0.1c-1.7-4.2-2.8-7.4-4.5-11.6c-3.5,0.9-3.7,0.9-7.6,2.5
			C136.6,13.5,136.3,19.7,135.2,22.7z"/>
		<path class="st1" d="M149.1,26.1c0,0.3-0.3,0.5-0.6,0.5l-1.4-0.1c-1.7-0.1-3.2-0.8-4.3-2.1v0c-0.5-0.4-1.2-0.4-1.8,0l-0.2,0.2
			c-1.1,1.1-2.6,1.8-4.2,1.9l-1.1,0c-0.4,0.1-0.8-0.2-0.8-0.7v-3.3c0-0.2,0.2-0.4,0.4-0.5c4.4-1.3,9-1.3,13.4,0
			c0.2,0.1,0.4,0.3,0.4,0.5V26.1z"/>
		<circle class="st4" cx="142" cy="25.8" r="1.7"/>
	</g>
</g>
</svg>
