<?xml version="1.0" encoding="utf-8"?>
<!-- Generator: Adobe Illustrator 23.0.5, SVG Export Plug-In . SVG Version: 6.00 Build 0)  -->
<svg version="1.1" id="Слой_1" xmlns="http://www.w3.org/2000/svg" xmlns:xlink="http://www.w3.org/1999/xlink" x="0px" y="0px"
	 viewBox="0 0 106 80" style="enable-background:new 0 0 106 80;" xml:space="preserve">
<style type="text/css">
	.st0{fill:#FF2400;}
	.st1{fill:#FFFFFF;}
</style>
<g>
	<path class="st0" d="M53,0C30.9,0,13,17.9,13,40s17.9,40,40,40s40-17.9,40-40S75.1,0,53,0z M84.6,19.8c-2.1-0.3-4.1-1-5.9-2.1
		c-1.6-1-3.5-1.5-5.4-1.6c-2.5-0.3-4.2-0.5-5.5-2.9c-2.3-4.6-7.6-4.9-10.1-4.4c-0.7,0.1-1.1,0.8-1,1.5s0.8,1.1,1.5,1l0,0
		c0.2,0,5.4-1,7.4,3.1c1.8,3.6,4.8,4,7.4,4.3c1.5,0.1,3,0.5,4.3,1.2c2.7,1.6,5.7,2.5,8.8,2.7c1.9,3.6,3.3,7.6,3.9,11.7
		c-4.3-3.9-11.9-6.6-15.8-6.6c-4.9,0-13,0-16.4-5.6c-3.2-5.4-7.5-5.8-12.4-6.3c-1.5-0.1-3-0.3-4.7-0.6c-3.7-0.8-6.9-3-8.7-6.2
		C49.1-2.6,72.4,1.9,84,19C84.2,19.2,84.4,19.5,84.6,19.8z M19.9,57.6c2.4,0.3,5.7,1.1,7,3.1c2.6,4,7.8,8.4,13.3,9.3
		c4.3,0.6,8,3.4,9.9,7.4C37.4,76.4,26,68.9,19.9,57.6z M52.8,77.5c-0.9-3.4-5-8.8-12.1-10c-4.8-0.8-9.4-4.8-11.7-8.2
		c-2.4-3.6-8.4-4.2-10.4-4.3c-2.1-4.7-3.2-9.8-3.1-15c0-0.5,0-1,0-1.5c2.4-0.4,8.3-0.7,10,4.4c1.5,4.5,4.4,5.5,6.7,6.4
		c2,0.7,3.6,1.3,4.5,3.7c2.7,6.5,9.1,10.8,16.2,10.8c6.1,0,17.2,4.8,18.7,8.8c-5.7,3.3-12.1,5-18.7,5C52.9,77.5,52.9,77.5,52.8,77.5
		z M73.8,71.2c-2.7-5.5-14.9-9.9-20.8-9.9c-6.1,0-11.5-3.6-13.8-9.2c-1.4-3.5-3.9-4.4-6-5.1c-2.2-0.8-4.1-1.4-5.2-4.8
		c-2-5.9-8.1-6.7-12.2-6.1c0.3-2.8,0.9-5.6,1.9-8.3c6,1.5,11.1,5.2,14.4,10.5C38.6,48.8,51.7,48.8,58,48.8c9.1,0,14.6,2.7,16.3,7.9
		c0.2,0.7,0.9,1,1.6,0.8s1-0.9,0.8-1.6c-1.5-4.4-5.9-9.6-18.7-9.6c-6.3,0-18.1,0-23.9-9.4C30.6,31.1,25,27,18.5,25.3
		C21,19.4,25,14.3,30,10.4c2.2,3.8,6,6.4,10.3,7c1.8,0.3,3.4,0.5,4.8,0.6c4.8,0.5,8,0.8,10.5,5.1C59.8,30,69.2,30,74.3,30
		c4.7,0,14.9,4.8,16.2,8.9c0,0.4,0,0.7,0,1.1c0,2.5-0.2,5-0.7,7.5c-6.3-0.6-12.3-3.1-17.2-7.2c-6.3-5.4-9.7-5.3-14.8-5.1
		c-2.8,0.2-5.6,0.1-8.4-0.2c-8.9-1-12-6.2-14.2-10c-0.4-0.7-0.8-1.4-1.2-2c-1.6-2.6-4.7-3.8-7.7-3c-0.7,0.2-1,0.9-0.8,1.6
		c0.2,0.6,0.9,1,1.6,0.8c1.9-0.5,3.9,0.3,4.8,2c0.4,0.5,0.7,1.2,1.1,1.8c2.3,4,5.8,10.1,16,11.2c2.9,0.3,5.8,0.4,8.7,0.2
		c4.8-0.2,7.5-0.3,13.1,4.5c5.1,4.4,11.5,7.1,18.2,7.7C86.8,58.6,81.3,66.2,73.8,71.2z"/>
	<path class="st0" d="M76.8,60L76.8,60c0.7,0,1.3,0.6,1.3,1.3l0,0c0,0.7-0.6,1.3-1.3,1.3l0,0c-0.7,0-1.3-0.6-1.3-1.3l0,0
		C75.5,60.6,76.1,60,76.8,60z"/>
	<path class="st0" d="M46.8,27.5L46.8,27.5c0.7,0,1.3,0.6,1.3,1.2l0,0c0,0.7-0.6,1.2-1.3,1.2l0,0c-0.7,0-1.3-0.6-1.3-1.2l0,0
		C45.5,28.1,46.1,27.5,46.8,27.5z"/>
	<path class="st0" d="M23,48.8L23,48.8c0.7,0,1.3,0.6,1.3,1.3l0,0c0,0.7-0.6,1.3-1.2,1.3l0,0c-0.7,0-1.2-0.6-1.2-1.3l0,0
		C21.8,49.4,22.4,48.8,23,48.8z"/>
	<rect x="51.8" y="8.8" class="st0" width="2.5" height="2.5"/>
</g>
<g>
	<path class="st1" d="M18.6,22.8c0.9,0.3,1.4,0.8,1.4,1.3c0,0.2-0.1,0.5-0.2,1l-3.9,11.3c0,0.1-0.1,0.2-0.1,0.3
		c-0.1,0.1-0.2,0.3-0.5,0.5s-0.6,0.3-1,0.3s-0.7-0.1-1-0.3s-0.5-0.4-0.6-0.7l-2.4-7C8.8,34,8,36.2,8,36.3s-0.1,0.2-0.2,0.3
		S7.6,36.9,7.5,37c-0.3,0.3-0.7,0.5-1.1,0.5s-0.8-0.1-1.1-0.3C5,37,4.8,36.8,4.7,36.6l-0.1-0.3L0.4,25.1c-0.1-0.4-0.2-0.8-0.2-1
		c0-0.5,0.5-1,1.4-1.3c0.4-0.1,0.8-0.2,1.1-0.2s0.6,0.1,0.7,0.3s0.3,0.6,0.5,1l2.2,6.8L8.3,24c0.2-0.6,0.5-1,1-1.2
		c0.2-0.1,0.5-0.1,0.8-0.1s0.7,0.1,1,0.3s0.5,0.4,0.6,0.7l2.3,7.1l2.2-6.8c0.1-0.3,0.2-0.5,0.3-0.7c0.1-0.1,0.2-0.3,0.4-0.4
		c0.2-0.1,0.4-0.2,0.7-0.2S18.2,22.7,18.6,22.8z"/>
	<path class="st1" d="M24.7,34H31c0.3,0,0.5,0,0.7,0s0.3,0.1,0.5,0.2c0.4,0.2,0.5,0.7,0.5,1.6c0,1-0.3,1.5-0.8,1.7
		c-0.2,0.1-0.6,0.1-1.1,0.1h-8.1c-1,0-1.5-0.3-1.7-0.8c-0.1-0.2-0.1-0.6-0.1-1V24.5c0-0.7,0.1-1.2,0.4-1.4c0.3-0.3,0.7-0.4,1.5-0.4
		h8c0.3,0,0.5,0,0.7,0s0.3,0.1,0.5,0.2c0.4,0.2,0.5,0.7,0.5,1.6c0,1-0.3,1.5-0.8,1.7c-0.2,0.1-0.6,0.1-1.1,0.1h-6.3v2.1h4
		c0.3,0,0.5,0,0.7,0s0.3,0.1,0.5,0.2c0.4,0.2,0.5,0.7,0.5,1.6c0,1-0.3,1.5-0.8,1.7C29,32,28.6,32,28.1,32h-4v2H24.7z"/>
	<path class="st1" d="M37.7,34.6h5.5c0.4,0,0.8,0.1,1,0.2c0.2,0.1,0.3,0.3,0.4,0.5c0.1,0.2,0.1,0.5,0.1,0.9s0,0.6-0.1,0.9
		c-0.1,0.2-0.2,0.4-0.3,0.4c-0.3,0.1-0.6,0.2-1.1,0.2h-7.3c-1,0-1.5-0.3-1.7-0.8c-0.1-0.2-0.1-0.6-0.1-1V24.5c0-0.3,0-0.5,0-0.7
		s0.1-0.3,0.2-0.5c0.2-0.4,0.7-0.6,1.6-0.6c1,0,1.5,0.3,1.7,0.8c0.1,0.2,0.1,0.6,0.1,1.1C37.7,24.6,37.7,34.6,37.7,34.6z"/>
	<path class="st1" d="M55.4,33.7l0.4-0.3c0.5-0.3,0.8-0.4,1-0.4c0.4,0,0.9,0.4,1.4,1.1c0.3,0.5,0.4,0.9,0.4,1.1
		c0,0.3-0.1,0.5-0.3,0.7s-0.4,0.4-0.6,0.5c-0.2,0.1-0.5,0.3-0.7,0.4c-0.2,0.1-0.7,0.3-1.4,0.5s-1.4,0.3-2,0.3s-1.3-0.1-2-0.3
		s-1.3-0.5-2-0.9s-1.3-0.9-1.9-1.5c-0.6-0.6-1-1.3-1.4-2.2c-0.4-0.9-0.5-1.9-0.5-2.9s0.2-2,0.5-2.9c0.4-0.9,0.8-1.6,1.4-2.1
		c0.6-0.6,1.2-1,1.9-1.4c1.3-0.7,2.7-1.1,4-1.1c0.6,0,1.3,0.1,1.9,0.3c0.7,0.2,1.2,0.4,1.5,0.6l0.5,0.3c0.2,0.1,0.4,0.3,0.6,0.4
		c0.4,0.3,0.5,0.6,0.5,1s-0.1,0.7-0.4,1.1c-0.5,0.7-1,1.1-1.4,1.1c-0.2,0-0.6-0.1-1-0.4c-0.6-0.5-1.3-0.7-2.3-0.7
		c-0.9,0-1.8,0.3-2.6,0.9c-0.4,0.3-0.7,0.7-1,1.3c-0.3,0.5-0.4,1.2-0.4,1.8c0,0.7,0.1,1.3,0.4,1.8c0.3,0.5,0.6,1,1,1.3
		c0.8,0.6,1.7,0.9,2.6,0.9c0.4,0,0.8-0.1,1.2-0.2C54.9,34,55.2,33.8,55.4,33.7z"/>
	<path class="st1" d="M66.9,22.5c2,0,3.8,0.7,5.2,2.2s2.2,3.3,2.2,5.4c0,2.2-0.7,4-2.1,5.5S69,37.9,67,37.9c-2.1,0-3.8-0.7-5.3-2.2
		c-1.4-1.5-2.2-3.3-2.2-5.3c0-1.1,0.2-2.2,0.6-3.2c0.4-1,1-1.8,1.6-2.5c0.7-0.7,1.5-1.2,2.3-1.6S66,22.5,66.9,22.5z M63.2,30.2
		c0,1.2,0.4,2.2,1.2,2.9c0.8,0.8,1.7,1.1,2.6,1.1c1,0,1.8-0.4,2.6-1.1s1.2-1.7,1.2-3c0-1.2-0.4-2.2-1.2-3S67.9,26,67,26
		s-1.8,0.4-2.6,1.1S63.2,29,63.2,30.2z"/>
	<path class="st1" d="M91.5,23.3c0.1,0.2,0.2,0.4,0.2,0.6s0,0.4,0,0.7v11.3c0,0.9-0.3,1.5-0.8,1.7c-0.3,0.1-0.6,0.1-1,0.1
		s-0.7,0-0.9-0.1c-0.2-0.1-0.4-0.1-0.5-0.2c-0.1-0.1-0.2-0.2-0.3-0.4c-0.1-0.2-0.1-0.6-0.1-1.1V29c-0.3,0.4-0.8,1.1-1.5,2
		s-1.1,1.5-1.2,1.7s-0.3,0.4-0.4,0.5s-0.2,0.2-0.5,0.4s-0.5,0.2-0.9,0.2s-0.6-0.1-0.8-0.2c-0.3-0.1-0.4-0.3-0.5-0.4L82.1,33
		c-0.3-0.3-0.8-1.1-1.6-2.2c-0.8-1.1-1.2-1.7-1.3-1.8v6.9c0,0.3,0,0.5,0,0.7s-0.1,0.3-0.2,0.5c-0.2,0.4-0.7,0.5-1.6,0.5
		c-0.8,0-1.3-0.2-1.5-0.5c-0.1-0.2-0.2-0.4-0.2-0.5c0-0.2,0-0.4,0-0.7V24.5c0-0.3,0-0.5,0-0.7s0.1-0.3,0.2-0.5
		c0.2-0.4,0.7-0.5,1.6-0.5c0.4,0,0.7,0,0.9,0.1s0.4,0.2,0.5,0.3l0.1,0.1l4.6,6.1c2.3-3.1,3.9-5.1,4.6-6.1c0.2-0.4,0.8-0.5,1.6-0.5
		C90.8,22.7,91.4,22.9,91.5,23.3z"/>
	<path class="st1" d="M97,34h6.3c0.3,0,0.5,0,0.7,0s0.3,0.1,0.5,0.2c0.4,0.2,0.6,0.7,0.6,1.6c0,1-0.3,1.5-0.8,1.7
		c-0.2,0.1-0.6,0.1-1.1,0.1h-8.1c-1,0-1.5-0.3-1.7-0.8c-0.1-0.2-0.1-0.6-0.1-1V24.5c0-0.7,0.1-1.2,0.4-1.4c0.3-0.3,0.7-0.4,1.5-0.4
		h8c0.3,0,0.5,0,0.7,0s0.3,0.1,0.5,0.2c0.4,0.2,0.6,0.7,0.6,1.6c0,1-0.3,1.5-0.8,1.7c-0.2,0.1-0.6,0.1-1.1,0.1H97v2.1h4
		c0.3,0,0.5,0,0.7,0s0.3,0.1,0.5,0.2c0.4,0.2,0.5,0.7,0.5,1.6c0,1-0.3,1.5-0.8,1.7c-0.2,0.1-0.6,0.1-1.1,0.1h-4v2
		C96.8,34,97,34,97,34z"/>
	<path class="st1" d="M1.9,40.2h12.8c0.5,0,0.9,0.1,1.1,0.2c0.2,0.1,0.4,0.3,0.5,0.5c0.1,0.2,0.1,0.6,0.1,1s0,0.7-0.1,1
		c-0.1,0.2-0.2,0.4-0.4,0.5c-0.3,0.1-0.7,0.2-1.2,0.2h-4.4v11.6c0,0.4,0,0.6,0,0.8s-0.1,0.4-0.2,0.6S9.8,57,9.5,57.1
		s-0.7,0.1-1.2,0.1s-0.9,0-1.1-0.1c-0.3-0.1-0.5-0.3-0.6-0.5S6.4,56.2,6.4,56s0-0.4,0-0.8V43.6H1.9c-0.5,0-0.9-0.1-1.1-0.2
		c-0.2-0.1-0.4-0.3-0.5-0.5s-0.1-0.6-0.1-1s0-0.7,0.1-1c0.1-0.2,0.2-0.4,0.4-0.5C1,40.3,1.4,40.2,1.9,40.2z"/>
	<path class="st1" d="M25.7,40c2.3,0,4.3,0.8,5.9,2.5c1.7,1.6,2.5,3.7,2.5,6.1c0,2.4-0.8,4.5-2.4,6.2s-3.6,2.6-5.9,2.6
		s-4.3-0.8-6-2.5s-2.5-3.7-2.5-6.1c0-1.3,0.2-2.5,0.7-3.6s1.1-2.1,1.8-2.8c0.8-0.8,1.7-1.3,2.7-1.8C23.6,40.3,24.6,40,25.7,40z
		 M21.5,48.8c0,1.4,0.4,2.5,1.3,3.3s1.9,1.3,3,1.3s2.1-0.4,3-1.2s1.3-1.9,1.3-3.3s-0.4-2.5-1.3-3.4c-0.9-0.8-1.9-1.3-3-1.3
		s-2.1,0.4-3,1.3C21.9,46.3,21.5,47.4,21.5,48.8z"/>
	<path class="st1" d="M59.5,40.9c0.1,0.2,0.2,0.4,0.2,0.6c0,0.2,0,0.5,0,0.8v12.8c0,1.1-0.3,1.7-0.9,1.9c-0.3,0.1-0.7,0.1-1.1,0.1
		c-0.4,0-0.8,0-1.1-0.1s-0.5-0.2-0.6-0.3s-0.2-0.3-0.3-0.5c-0.1-0.3-0.1-0.7-0.1-1.2v-7.7c-0.4,0.5-0.9,1.2-1.7,2.3
		c-0.7,1-1.2,1.7-1.4,2s-0.3,0.4-0.4,0.5c-0.1,0.1-0.3,0.2-0.6,0.4s-0.6,0.3-1,0.3s-0.7-0.1-0.9-0.2c-0.3-0.2-0.5-0.3-0.6-0.5
		l-0.2-0.3c-0.3-0.4-0.9-1.2-1.8-2.5c-0.9-1.3-1.4-1.9-1.5-2v7.8c0,0.4,0,0.6,0,0.8s-0.1,0.4-0.2,0.6c-0.2,0.4-0.8,0.6-1.8,0.6
		c-0.9,0-1.5-0.2-1.8-0.6c-0.1-0.2-0.2-0.4-0.2-0.6c0-0.2,0-0.5,0-0.8V42.3c0-0.4,0-0.6,0-0.8s0.1-0.4,0.2-0.6
		c0.2-0.4,0.8-0.6,1.8-0.6c0.4,0,0.8,0,1.1,0.2c0.3,0.1,0.5,0.2,0.6,0.3l0.1,0.1l5.2,6.9c2.6-3.5,4.4-5.8,5.2-6.9
		c0.3-0.4,0.9-0.6,1.9-0.6S59.2,40.5,59.5,40.9z"/>
	<path class="st1" d="M71.3,41.5l6.2,12.9c0.3,0.5,0.4,0.9,0.4,1.2c0,0.6-0.4,1.1-1.3,1.5c-0.5,0.3-0.9,0.4-1.2,0.4
		c-0.3,0-0.5-0.1-0.7-0.2s-0.3-0.3-0.4-0.4c-0.1-0.2-0.2-0.4-0.4-0.7l-1.2-2.5h-6.4l-1.2,2.5c-0.2,0.3-0.3,0.5-0.4,0.7
		c-0.1,0.1-0.2,0.3-0.4,0.4s-0.4,0.2-0.7,0.2s-0.7-0.1-1.2-0.4c-0.9-0.4-1.3-0.9-1.3-1.5c0-0.3,0.1-0.7,0.4-1.2l6.2-12.9
		c0.2-0.4,0.4-0.6,0.8-0.9c0.3-0.2,0.7-0.3,1.1-0.3C70.3,40.3,70.9,40.7,71.3,41.5z M69.5,47L68,50.2h3L69.5,47z"/>
	<path class="st1" d="M92.2,54.3c0.2,0.6,0.3,1,0.3,1.2c0,0.6-0.5,1.1-1.4,1.5c-0.5,0.2-0.9,0.3-1.2,0.3c-0.3,0-0.5-0.1-0.7-0.2
		c-0.2-0.1-0.3-0.3-0.4-0.5C88.6,56.4,88,55,87,52.5h-0.7h-2.9v2.6c0,0.4,0,0.6,0,0.8s-0.1,0.4-0.2,0.6c-0.2,0.4-0.8,0.6-1.8,0.6
		c-1.1,0-1.7-0.3-1.9-0.9c-0.1-0.3-0.1-0.7-0.1-1.2V42.3c0-0.4,0-0.6,0-0.8s0.1-0.4,0.2-0.6c0.2-0.4,0.8-0.6,1.8-0.6h5
		c1.4,0,2.7,0.5,4,1.5c0.6,0.5,1.1,1.1,1.5,1.9c0.4,0.8,0.6,1.7,0.6,2.7c0,1.7-0.6,3.2-1.7,4.3C91,51.5,91.5,52.7,92.2,54.3z
		 M83.3,48.4h3c0.4,0,0.9-0.2,1.3-0.5s0.7-0.8,0.7-1.5s-0.2-1.2-0.7-1.5c-0.4-0.3-0.9-0.5-1.4-0.5h-2.9V48.4z"/>
	<path class="st1" d="M94.1,54.8c-0.4-0.5-0.6-0.9-0.6-1.3s0.3-0.9,1-1.6c0.4-0.4,0.8-0.6,1.2-0.6c0.4,0,1,0.4,1.8,1.2
		c0.2,0.3,0.5,0.5,0.9,0.8c0.4,0.2,0.8,0.4,1.1,0.4c1.4,0,2.1-0.6,2.1-1.8c0-0.4-0.2-0.7-0.6-0.9s-0.9-0.4-1.5-0.5s-1.2-0.3-1.9-0.5
		c-0.7-0.2-1.3-0.5-1.9-0.8s-1.1-0.8-1.5-1.5C94,46.9,93.8,46,93.8,45c0-1.4,0.5-2.5,1.5-3.5s2.4-1.5,4.1-1.5c0.9,0,1.8,0.1,2.5,0.4
		c0.8,0.2,1.3,0.5,1.6,0.7l0.6,0.4c0.5,0.4,0.7,0.8,0.7,1.1s-0.2,0.7-0.6,1.3c-0.5,0.8-1.1,1.2-1.6,1.2c-0.3,0-0.7-0.2-1.2-0.5
		c0,0-0.1-0.1-0.3-0.2c-0.1-0.1-0.3-0.2-0.4-0.3c-0.3-0.2-0.7-0.3-1.2-0.3s-0.9,0.1-1.2,0.4c-0.3,0.2-0.5,0.6-0.5,1s0.2,0.8,0.6,1
		c0.4,0.3,0.9,0.4,1.5,0.5s1.2,0.2,1.9,0.4c0.7,0.2,1.3,0.4,1.9,0.7s1.1,0.8,1.5,1.4c0.4,0.7,0.6,1.5,0.6,2.5s-0.2,1.9-0.6,2.6
		s-0.9,1.4-1.6,1.8c-1.2,0.8-2.6,1.2-4,1.2c-0.7,0-1.4-0.1-2.1-0.3c-0.6-0.2-1.2-0.4-1.6-0.7c-0.8-0.5-1.4-1-1.7-1.4L94.1,54.8z"/>
</g>
</svg>
