<?xml version="1.0" encoding="utf-8"?>
<!-- Generator: Adobe Illustrator 23.0.5, SVG Export Plug-In . SVG Version: 6.00 Build 0)  -->
<svg version="1.1" id="Слой_1" xmlns="http://www.w3.org/2000/svg" xmlns:xlink="http://www.w3.org/1999/xlink" x="0px" y="0px"
	 viewBox="0 0 10 10" style="enable-background:new 0 0 10 10;" xml:space="preserve">
<style type="text/css">
	.st0{fill:#FF2400;}
</style>
<g>
	<path class="st0" d="M5,0C2.2,0,0,2.2,0,5s2.2,5,5,5s5-2.2,5-5S7.8,0,5,0z M8.9,2.5c-0.3,0-0.5-0.1-0.8-0.3C8,2.1,7.8,2,7.5,2
		C7.2,2,7,1.9,6.8,1.7C6.5,1.1,5.9,1.1,5.6,1.1c-0.1,0-0.1,0.1-0.1,0.2s0.1,0.1,0.2,0.1l0,0c0,0,0.7-0.1,0.9,0.4
		c0.2,0.4,0.6,0.5,0.9,0.6c0.2,0,0.4,0.1,0.5,0.2c0.3,0.2,0.7,0.3,1.1,0.3c0.3,0.5,0.4,1,0.5,1.5c-0.6-0.5-1.5-0.8-2-0.8
		c-0.6,0-1.6,0-2-0.7C5.2,2.2,4.7,2.1,4.1,2C3.9,2,3.7,2,3.5,2C3,1.8,2.6,1.5,2.4,1.1C4.5-0.3,7.4,0.2,8.9,2.5
		C8.9,2.4,8.9,2.5,8.9,2.5z M0.9,7.2c0.3,0,0.7,0.1,0.9,0.4c0.3,0.5,1,1,1.7,1.2c0.5,0.1,1,0.4,1.2,0.9C3,9.6,1.6,8.6,0.9,7.2z
		 M5,9.7C4.8,9.3,4.3,8.6,3.4,8.5C2.8,8.4,2.3,7.9,2,7.4C1.7,7,0.9,6.9,0.7,6.9C0.4,6.3,0.3,5.7,0.3,5c0-0.1,0-0.1,0-0.2
		c0.3-0.1,1-0.1,1.3,0.6C1.7,6,2.1,6.1,2.4,6.2C2.6,6.3,2.8,6.3,3,6.7C3.3,7.5,4.1,8,5,8c0.8,0,2.2,0.6,2.3,1.1
		C6.6,9.5,5.8,9.7,5,9.7C5,9.7,5,9.7,5,9.7z M7.6,8.9C7.3,8.2,5.7,7.7,5,7.7c-0.8,0-1.5-0.4-1.7-1.2C3.1,6.1,2.8,6,2.5,5.9
		C2.3,5.8,2,5.7,1.9,5.3c-0.3-0.8-1-0.8-1.5-0.8c0.1-0.3,0.1-0.7,0.3-1C1.4,3.7,2,4.2,2.4,4.8c0.8,1.3,2.5,1.3,3.2,1.3
		c1.1,0,1.8,0.3,2.1,1c0,0.1,0.1,0.1,0.2,0.1S8,7.1,8,7.1C7.8,6.5,7.2,5.9,5.6,5.9c-0.8,0-2.3,0-3-1.2C2.2,4,1.5,3.4,0.7,3.2
		C1,2.4,1.5,1.8,2.1,1.3c0.3,0.5,0.8,0.8,1.3,0.9c0.2,0,0.4,0,0.6,0.1c0.6,0.1,1,0.1,1.3,0.7C5.8,3.8,7,3.8,7.7,3.8
		c0.6,0,1.9,0.6,2,1.1c0,0.1,0,0.1,0,0.1c0,0.3,0,0.6-0.1,0.9C8.8,5.9,8.1,5.6,7.5,5.1C6.7,4.4,6.3,4.4,5.6,4.4c-0.3,0-0.7,0-1.1,0
		C3.4,4.3,3.1,3.6,2.8,3.2c0-0.1-0.1-0.2-0.2-0.3C2.4,2.6,2,2.4,1.7,2.5c-0.1,0-0.1,0.1-0.1,0.2c0,0.1,0.1,0.1,0.2,0.1
		c0.2-0.1,0.5,0,0.6,0.3c0,0.1,0.1,0.2,0.1,0.2c0.3,0.5,0.7,1.3,2,1.4c0.4,0,0.7,0.1,1.1,0c0.6,0,0.9,0,1.7,0.6
		c0.6,0.6,1.4,0.9,2.3,1C9.2,7.3,8.6,8.3,7.6,8.9z"/>
	<path class="st0" d="M8,7.5L8,7.5c0.1,0,0.2,0.1,0.2,0.2l0,0c0,0.1-0.1,0.2-0.2,0.2l0,0c-0.1,0-0.2-0.1-0.2-0.2l0,0
		C7.8,7.6,7.9,7.5,8,7.5z"/>
	<path class="st0" d="M4.2,3.5L4.2,3.5c0.1,0,0.2,0.1,0.2,0.2l0,0c0,0.1-0.1,0.2-0.2,0.2l0,0c-0.1,0-0.2-0.1-0.2-0.2l0,0
		C4.1,3.5,4.1,3.5,4.2,3.5z"/>
	<path class="st0" d="M1.3,6.1L1.3,6.1c0.1,0,0.1,0.1,0.1,0.2l0,0c0,0.1-0.1,0.2-0.1,0.2l0,0c-0.1,0-0.1-0.1-0.1-0.2l0,0
		C1.1,6.2,1.2,6.1,1.3,6.1z"/>
	<rect x="4.8" y="1.1" class="st0" width="0.3" height="0.3"/>
</g>
</svg>
