<?xml version="1.0" encoding="utf-8"?>
<!-- Generator: Adobe Illustrator 23.0.5, SVG Export Plug-In . SVG Version: 6.00 Build 0)  -->
<svg version="1.1" id="Слой_1" xmlns="http://www.w3.org/2000/svg" xmlns:xlink="http://www.w3.org/1999/xlink" x="0px" y="0px"
	 viewBox="0 0 13.3 10" style="enable-background:new 0 0 13.3 10;" xml:space="preserve">
<style type="text/css">
	.st0{fill:#EBC0A7;}
	.st1{fill:#FF2400;}
</style>
<g>
	<g>
		<path class="st0" d="M6.6,0c-2.8,0-5,2.2-5,5s2.2,5,5,5s5-2.2,5-5S9.4,0,6.6,0z M10.6,2.5c-0.3,0-0.5-0.1-0.7-0.3
			C9.6,2.1,9.4,2,9.2,2C8.9,2,8.6,2,8.5,1.7C8.2,1.1,7.5,1,7.2,1.1c-0.1,0-0.1,0.1-0.1,0.2s0.1,0.1,0.2,0.1l0,0c0,0,0.7-0.1,0.9,0.4
			c0.2,0.5,0.6,0.5,0.9,0.5c0.2,0,0.4,0.1,0.5,0.2c0.3,0.2,0.7,0.3,1.1,0.3c0.2,0.5,0.4,1,0.5,1.5c-0.5-0.5-1.5-0.8-2-0.8
			c-0.6,0-1.6,0-2-0.7C6.8,2.1,6.3,2,5.7,2c-0.2,0-0.4,0-0.6-0.1C4.6,1.8,4.2,1.5,4,1.1C6.1-0.3,9.1,0.2,10.6,2.5
			C10.5,2.4,10.6,2.4,10.6,2.5z M2.5,7.2c0.3,0,0.7,0.1,0.9,0.4c0.3,0.5,1,1,1.7,1.2c0.5,0.1,1,0.4,1.2,0.9C4.7,9.6,3.3,8.6,2.5,7.2
			z M6.6,9.7C6.5,9.3,6,8.6,5.1,8.4c-0.6-0.1-1.2-0.6-1.5-1C3.3,7,2.6,6.9,2.3,6.9C2.1,6.3,1.9,5.7,1.9,5c0-0.1,0-0.1,0-0.2
			c0.3-0.1,1-0.1,1.3,0.6C3.4,5.9,3.7,6.1,4,6.2c0.3,0.1,0.4,0.2,0.6,0.5C4.9,7.4,5.7,8,6.6,8C7.4,8,8.8,8.6,9,9.1
			C8.2,9.5,7.4,9.7,6.6,9.7C6.6,9.7,6.6,9.7,6.6,9.7z M9.2,8.9C8.9,8.2,7.4,7.7,6.6,7.7c-0.8,0-1.4-0.4-1.7-1.2
			C4.7,6.1,4.4,6,4.2,5.9C3.9,5.8,3.6,5.7,3.5,5.3C3.3,4.5,2.5,4.4,2,4.5c0-0.3,0.1-0.7,0.2-1C3,3.7,3.6,4.1,4,4.8
			c0.8,1.3,2.4,1.3,3.2,1.3c1.1,0,1.8,0.3,2,1c0,0.1,0.1,0.1,0.2,0.1S9.6,7.1,9.6,7C9.4,6.4,8.9,5.8,7.3,5.8c-0.8,0-2.3,0-3-1.2
			c-0.4-0.7-1.1-1.2-2-1.5c0.3-0.7,0.8-1.4,1.4-1.9C4,1.8,4.5,2.1,5,2.2c0.2,0,0.4,0.1,0.6,0.1c0.6,0.1,1,0.1,1.3,0.6
			c0.5,0.9,1.7,0.9,2.3,0.9c0.6,0,1.9,0.6,2,1.1c0,0.1,0,0.1,0,0.1c0,0.3,0,0.6-0.1,0.9C10.4,5.9,9.7,5.6,9.1,5
			C8.3,4.4,7.9,4.4,7.2,4.4c-0.3,0-0.7,0-1,0C5.1,4.3,4.7,3.6,4.4,3.1C4.4,3,4.3,3,4.3,2.9c-0.2-0.3-0.6-0.5-1-0.4
			c-0.1,0-0.1,0.1-0.1,0.2c0,0.1,0.1,0.1,0.2,0.1c0.2-0.1,0.5,0,0.6,0.3C4,3.1,4.1,3.2,4.1,3.3c0.3,0.5,0.7,1.3,2,1.4
			c0.4,0,0.7,0.1,1.1,0c0.6,0,0.9,0,1.6,0.6c0.6,0.6,1.4,0.9,2.3,1C10.9,7.3,10.2,8.3,9.2,8.9z"/>
		<path class="st0" d="M9.6,7.5L9.6,7.5c0.1,0,0.2,0.1,0.2,0.2l0,0c0,0.1-0.1,0.2-0.2,0.2l0,0c-0.1,0-0.2-0.1-0.2-0.2l0,0
			C9.4,7.6,9.5,7.5,9.6,7.5z"/>
		<path class="st0" d="M5.9,3.4L5.9,3.4C5.9,3.4,6,3.5,6,3.6l0,0c0,0.1-0.1,0.2-0.2,0.2l0,0c-0.1,0-0.2-0.1-0.2-0.2l0,0
			C5.7,3.5,5.8,3.4,5.9,3.4z"/>
		<path class="st0" d="M2.9,6.1L2.9,6.1C3,6.1,3,6.2,3,6.3l0,0C3,6.4,3,6.4,2.9,6.4l0,0c-0.1,0-0.2-0.1-0.2-0.2l0,0
			C2.7,6.2,2.8,6.1,2.9,6.1z"/>
		<rect x="6.5" y="1.1" class="st0" width="0.3" height="0.3"/>
	</g>
	<g>
		<path class="st1" d="M2.3,2.9C2.4,2.9,2.5,3,2.5,3c0,0,0,0.1,0,0.1L2,4.6c0,0,0,0,0,0c0,0,0,0-0.1,0.1s-0.1,0-0.1,0s-0.1,0-0.1,0
			S1.6,4.6,1.6,4.6L1.3,3.7C1.1,4.3,1,4.5,1,4.5s0,0,0,0s0,0,0,0.1c0,0-0.1,0.1-0.1,0.1s-0.1,0-0.1,0c0,0-0.1-0.1-0.1-0.1l0,0
			L0.1,3.1C0,3.1,0,3,0,3C0,3,0.1,2.9,0.2,2.9c0,0,0.1,0,0.1,0s0.1,0,0.1,0s0,0.1,0.1,0.1l0.3,0.9L1,3c0-0.1,0.1-0.1,0.1-0.2
			c0,0,0.1,0,0.1,0s0.1,0,0.1,0s0.1,0,0.1,0.1l0.3,0.9L2,3c0,0,0-0.1,0-0.1c0,0,0,0,0,0c0,0,0,0,0.1,0S2.3,2.8,2.3,2.9z"/>
		<path class="st1" d="M3.1,4.3h0.8c0,0,0.1,0,0.1,0s0,0,0.1,0c0.1,0,0.1,0.1,0.1,0.2c0,0.1,0,0.2-0.1,0.2c0,0-0.1,0-0.1,0h-1
			c-0.1,0-0.2,0-0.2-0.1c0,0,0-0.1,0-0.1V3.1c0-0.1,0-0.2,0-0.2c0,0,0.1,0,0.2,0h1c0,0,0.1,0,0.1,0s0,0,0.1,0c0.1,0,0.1,0.1,0.1,0.2
			c0,0.1,0,0.2-0.1,0.2c0,0-0.1,0-0.1,0H3v0.3h0.5c0,0,0.1,0,0.1,0s0,0,0.1,0c0,0,0.1,0.1,0.1,0.2c0,0.1,0,0.2-0.1,0.2
			c0,0-0.1,0-0.1,0H3L3.1,4.3L3.1,4.3z"/>
		<path class="st1" d="M4.7,4.3h0.7c0.1,0,0.1,0,0.1,0c0,0,0,0,0.1,0.1c0,0,0,0.1,0,0.1s0,0.1,0,0.1c0,0,0,0.1,0,0.1
			c0,0-0.1,0-0.1,0H4.5c-0.1,0-0.2,0-0.2-0.1c0,0,0-0.1,0-0.1V3.1c0,0,0-0.1,0-0.1s0,0,0-0.1c0,0,0.1-0.1,0.2-0.1
			c0.1,0,0.2,0,0.2,0.1c0,0,0,0.1,0,0.1C4.7,3.1,4.7,4.3,4.7,4.3z"/>
		<path class="st1" d="M6.9,4.2L6.9,4.2C7,4.1,7.1,4.1,7.1,4.1c0.1,0,0.1,0.1,0.2,0.1c0,0.1,0.1,0.1,0.1,0.1c0,0,0,0.1,0,0.1
			S7.2,4.5,7.2,4.6c0,0-0.1,0-0.1,0.1c0,0-0.1,0-0.2,0.1s-0.2,0-0.3,0s-0.2,0-0.3,0S6.3,4.6,6.2,4.6S6,4.4,6,4.4
			C5.9,4.3,5.8,4.2,5.8,4.1S5.7,3.9,5.7,3.7s0-0.3,0.1-0.4C5.8,3.3,5.9,3.2,6,3.1C6,3,6.1,3,6.2,2.9c0.2-0.1,0.3-0.1,0.5-0.1
			c0.1,0,0.2,0,0.2,0c0.1,0,0.2,0,0.2,0.1l0.1,0c0,0,0.1,0,0.1,0c0.1,0,0.1,0.1,0.1,0.1s0,0.1-0.1,0.1C7.2,3.3,7.2,3.4,7.1,3.4
			c0,0-0.1,0-0.1,0C6.9,3.3,6.8,3.3,6.7,3.3c-0.1,0-0.2,0-0.3,0.1c-0.1,0-0.1,0.1-0.1,0.2c0,0.1-0.1,0.2-0.1,0.2
			c0,0.1,0,0.2,0.1,0.2c0,0.1,0.1,0.1,0.1,0.2c0.1,0.1,0.2,0.1,0.3,0.1C6.7,4.3,6.8,4.2,6.9,4.2C6.9,4.3,6.9,4.2,6.9,4.2z"/>
		<path class="st1" d="M8.4,2.8c0.3,0,0.5,0.1,0.6,0.3s0.3,0.4,0.3,0.7C9.3,4,9.2,4.3,9,4.5S8.6,4.7,8.4,4.7c-0.3,0-0.5-0.1-0.7-0.3
			C7.5,4.3,7.4,4.1,7.4,3.8c0-0.1,0-0.3,0.1-0.4c0.1-0.1,0.1-0.2,0.2-0.3C7.8,3,7.9,2.9,8,2.9C8.1,2.8,8.3,2.8,8.4,2.8z M7.9,3.8
			c0,0.2,0.1,0.3,0.1,0.4c0.1,0.1,0.2,0.1,0.3,0.1c0.1,0,0.2-0.1,0.3-0.1s0.1-0.2,0.1-0.4c0-0.2-0.1-0.3-0.1-0.4S8.5,3.3,8.4,3.3
			s-0.2,0-0.3,0.1C8,3.5,7.9,3.6,7.9,3.8z"/>
		<path class="st1" d="M11.4,2.9C11.5,2.9,11.5,3,11.4,2.9c0,0.1,0,0.1,0,0.2v1.4c0,0.1,0,0.2-0.1,0.2c0,0-0.1,0-0.1,0s-0.1,0-0.1,0
			c0,0-0.1,0-0.1,0c0,0,0,0,0-0.1c0,0,0-0.1,0-0.1V3.6c0,0-0.1,0.1-0.2,0.3s-0.1,0.2-0.1,0.2s0,0.1-0.1,0.1s0,0-0.1,0.1
			s-0.1,0-0.1,0s-0.1,0-0.1,0c0,0-0.1,0-0.1-0.1l0,0c0,0-0.1-0.1-0.2-0.3C10,3.7,9.9,3.6,9.9,3.6v0.9c0,0,0,0.1,0,0.1s0,0,0,0.1
			c0,0.1-0.1,0.1-0.2,0.1c-0.1,0-0.2,0-0.2-0.1c0,0,0-0.1,0-0.1c0,0,0-0.1,0-0.1V3.1c0,0,0-0.1,0-0.1s0,0,0-0.1c0,0,0.1-0.1,0.2-0.1
			c0.1,0,0.1,0,0.1,0s0.1,0,0.1,0l0,0l0.6,0.8C10.7,3.3,10.9,3,11,2.9c0,0,0.1-0.1,0.2-0.1C11.4,2.8,11.4,2.9,11.4,2.9z"/>
		<path class="st1" d="M12.1,4.3h0.8c0,0,0.1,0,0.1,0s0,0,0.1,0c0.1,0,0.1,0.1,0.1,0.2c0,0.1,0,0.2-0.1,0.2c0,0-0.1,0-0.1,0h-1
			c-0.1,0-0.2,0-0.2-0.1c0,0,0-0.1,0-0.1V3.1c0-0.1,0-0.2,0.1-0.2c0,0,0.1,0,0.2,0h1c0,0,0.1,0,0.1,0s0,0,0.1,0
			c0.1,0,0.1,0.1,0.1,0.2c0,0.1,0,0.2-0.1,0.2c0,0-0.1,0-0.1,0h-0.8v0.3h0.5c0,0,0.1,0,0.1,0s0,0,0.1,0c0.1,0,0.1,0.1,0.1,0.2
			c0,0.1,0,0.2-0.1,0.2c0,0-0.1,0-0.1,0h-0.5L12.1,4.3C12.1,4.3,12.1,4.3,12.1,4.3z"/>
		<path class="st1" d="M0.2,5h1.6C1.9,5,2,5,2,5.1c0,0,0.1,0,0.1,0.1c0,0,0,0.1,0,0.1s0,0.1,0,0.1c0,0,0,0.1-0.1,0.1
			c0,0-0.1,0-0.1,0H1.3v1.5c0,0.1,0,0.1,0,0.1s0,0.1,0,0.1s0,0-0.1,0.1s-0.1,0-0.1,0s-0.1,0-0.1,0c0,0-0.1,0-0.1-0.1s0,0,0-0.1
			s0-0.1,0-0.1V5.5H0.2c-0.1,0-0.1,0-0.1,0c0,0-0.1,0-0.1-0.1s0-0.1,0-0.1s0-0.1,0-0.1c0,0,0-0.1,0-0.1C0.1,5,0.2,5,0.2,5z"/>
		<path class="st1" d="M3.2,5C3.5,5,3.8,5.1,4,5.3c0.2,0.2,0.3,0.5,0.3,0.8c0,0.3-0.1,0.6-0.3,0.8S3.5,7.2,3.2,7.2S2.7,7.1,2.5,6.9
			S2.2,6.4,2.2,6.1c0-0.2,0-0.3,0.1-0.4s0.1-0.3,0.2-0.3c0.1-0.1,0.2-0.2,0.3-0.2C3,5,3.1,5,3.2,5z M2.7,6.1c0,0.2,0,0.3,0.2,0.4
			s0.2,0.2,0.4,0.2s0.3-0.1,0.4-0.2s0.2-0.2,0.2-0.4s0-0.3-0.2-0.4C3.5,5.6,3.4,5.5,3.2,5.5S3,5.6,2.9,5.7C2.7,5.8,2.7,5.9,2.7,6.1z
			"/>
		<path class="st1" d="M7.4,5.1C7.5,5.1,7.5,5.2,7.4,5.1c0,0.1,0,0.1,0,0.2v1.6c0,0.1,0,0.2-0.1,0.2c0,0-0.1,0-0.1,0
			c-0.1,0-0.1,0-0.1,0S7,7.1,7,7.1s0,0,0-0.1c0,0,0-0.1,0-0.2v-1C6.9,6,6.8,6.1,6.7,6.2C6.7,6.3,6.6,6.4,6.6,6.5s0,0.1-0.1,0.1
			c0,0,0,0-0.1,0.1s-0.1,0-0.1,0s-0.1,0-0.1,0c0,0-0.1,0-0.1-0.1l0,0c0-0.1-0.1-0.2-0.2-0.3C5.8,6,5.7,5.9,5.7,5.9v1
			c0,0.1,0,0.1,0,0.1s0,0.1,0,0.1c0,0.1-0.1,0.1-0.2,0.1c-0.1,0-0.2,0-0.2-0.1c0,0,0-0.1,0-0.1c0,0,0-0.1,0-0.1V5.3
			c0-0.1,0-0.1,0-0.1s0-0.1,0-0.1C5.2,5.1,5.3,5,5.4,5c0.1,0,0.1,0,0.1,0c0,0,0.1,0,0.1,0l0,0L6.3,6C6.6,5.5,6.9,5.3,7,5.1
			C7,5.1,7.1,5,7.2,5S7.4,5.1,7.4,5.1z"/>
		<path class="st1" d="M8.9,5.2l0.8,1.6c0,0.1,0.1,0.1,0.1,0.2c0,0.1-0.1,0.1-0.2,0.2c-0.1,0-0.1,0.1-0.1,0.1c0,0-0.1,0-0.1,0
			s0,0-0.1-0.1c0,0,0-0.1-0.1-0.1L9.1,6.7H8.3L8.1,7c0,0,0,0.1-0.1,0.1c0,0,0,0-0.1,0.1s0,0-0.1,0s-0.1,0-0.2-0.1
			C7.7,7.1,7.6,7,7.6,7c0,0,0-0.1,0.1-0.2l0.8-1.6c0-0.1,0.1-0.1,0.1-0.1c0,0,0.1,0,0.1,0C8.8,5,8.9,5.1,8.9,5.2z M8.7,5.9L8.5,6.3
			h0.4L8.7,5.9z"/>
		<path class="st1" d="M11.5,6.8c0,0.1,0,0.1,0,0.2c0,0.1-0.1,0.1-0.2,0.2c-0.1,0-0.1,0-0.1,0c0,0-0.1,0-0.1,0c0,0,0,0-0.1-0.1
			c0,0-0.1-0.2-0.2-0.5h-0.1h-0.4v0.3c0,0.1,0,0.1,0,0.1s0,0.1,0,0.1c0,0.1-0.1,0.1-0.2,0.1C10,7.1,10,7.1,9.9,7c0,0,0-0.1,0-0.2
			V5.3c0-0.1,0-0.1,0-0.1s0-0.1,0-0.1C10,5.1,10.1,5,10.2,5h0.6c0.2,0,0.3,0.1,0.5,0.2c0.1,0.1,0.1,0.1,0.2,0.2
			c0.1,0.1,0.1,0.2,0.1,0.3c0,0.2-0.1,0.4-0.2,0.5C11.4,6.4,11.4,6.6,11.5,6.8z M10.4,6.1h0.4c0.1,0,0.1,0,0.2-0.1S11,5.9,11,5.8
			s0-0.2-0.1-0.2c-0.1,0-0.1-0.1-0.2-0.1h-0.4V6.1z"/>
		<path class="st1" d="M11.8,6.9c-0.1-0.1-0.1-0.1-0.1-0.2s0-0.1,0.1-0.2c0.1-0.1,0.1-0.1,0.1-0.1c0.1,0,0.1,0.1,0.2,0.2
			c0,0,0.1,0.1,0.1,0.1c0.1,0,0.1,0.1,0.1,0.1c0.2,0,0.3-0.1,0.3-0.2c0-0.1,0-0.1-0.1-0.1s-0.1-0.1-0.2-0.1s-0.1,0-0.2-0.1
			c-0.1,0-0.2-0.1-0.2-0.1S11.8,6.1,11.8,6c0-0.1,0-0.2,0-0.3c0-0.2,0.1-0.3,0.2-0.4S12.2,5,12.4,5c0.1,0,0.2,0,0.3,0.1
			c0.1,0,0.2,0.1,0.2,0.1L13,5.2c0.1,0.1,0.1,0.1,0.1,0.1s0,0.1-0.1,0.2c-0.1,0.1-0.1,0.2-0.2,0.2c0,0-0.1,0-0.1-0.1c0,0,0,0,0,0
			c0,0,0,0-0.1,0c0,0-0.1,0-0.1,0s-0.1,0-0.1,0.1c0,0-0.1,0.1-0.1,0.1s0,0.1,0.1,0.1c0.1,0,0.1,0.1,0.2,0.1s0.1,0,0.2,0.1
			c0.1,0,0.2,0.1,0.2,0.1s0.1,0.1,0.2,0.2c0.1,0.1,0.1,0.2,0.1,0.3s0,0.2-0.1,0.3S13,7,13,7c-0.1,0.1-0.3,0.2-0.5,0.2
			c-0.1,0-0.2,0-0.3,0C12.1,7.1,12,7.1,12,7C11.9,7,11.8,6.9,11.8,6.9L11.8,6.9z"/>
	</g>
</g>
</svg>
