<?xml version="1.0" encoding="utf-8"?>
<!-- Generator: Adobe Illustrator 23.0.5, SVG Export Plug-In . SVG Version: 6.00 Build 0)  -->
<svg version="1.1" id="Слой_1" xmlns="http://www.w3.org/2000/svg" xmlns:xlink="http://www.w3.org/1999/xlink" x="0px" y="0px"
	 viewBox="0 0 10 10" style="enable-background:new 0 0 10 10;" xml:space="preserve">
<style type="text/css">
	.st0{fill:#8E8E8E;}
</style>
<path class="st0" d="M5,0C2.2,0,0,2.2,0,5s2.2,5,5,5s5-2.2,5-5S7.8,0,5,0z M7.1,1C7.4,1.2,7.7,1.4,8,1.6c-0.1,0-0.3,0-0.5-0.1
	C7.2,1.3,7,1.1,7.1,1C7.1,1,7.1,1,7.1,1z M6.8,9.1C6.7,9.1,6.7,9.1,6.8,9.1C6.3,9,6.1,8.5,6.2,8.1c0-0.3,0.2-0.5,0.3-0.6
	C6.7,7.3,7,7.3,7.2,7.3C7.6,7.4,8,7.8,7.9,8.4c0,0.1,0,0.1,0,0.2C7.5,8.8,7.2,9,6.8,9.1C6.8,9.2,6.8,9.1,6.8,9.1z M8.3,8
	C8.3,7.4,7.8,6.9,7.2,6.8c-0.4,0-0.7,0.1-1,0.3C6,7.4,5.8,7.7,5.7,8.1c-0.1,0.5,0.1,1,0.5,1.3C5.8,9.5,5.4,9.5,5,9.5
	c-2.5,0-4.5-2-4.5-4.5c0-2.5,2-4.5,4.5-4.5c0.6,0,1.2,0.1,1.7,0.3C6.5,1.2,6.8,1.7,7.3,1.9C7.5,2,7.7,2.1,8,2.1c0.1,0,0.2,0,0.3,0
	c0,0,0.1,0,0.1-0.1c0.7,0.8,1.2,1.9,1.2,3C9.5,6.2,9.1,7.2,8.3,8z"/>
<path class="st0" d="M2.8,6.2c-0.4-0.2-0.9,0-1,0.4C1.6,7,1.9,7.4,2.3,7.6c0.1,0,0.2,0.1,0.3,0.1c0.3,0,0.6-0.2,0.7-0.4
	c0.1-0.2,0-0.4-0.1-0.6C3.2,6.4,3,6.3,2.8,6.2z M2.9,7c0,0.1-0.3,0.2-0.4,0.1C2.3,7,2.2,6.9,2.2,6.8c0-0.1,0.1-0.1,0.3-0.1
	c0.1,0,0.1,0,0.2,0c0.1,0,0.2,0.1,0.2,0.2C2.9,6.9,2.9,6.9,2.9,7z"/>
<path class="st0" d="M7.6,4C7.6,4,7.5,4,7.6,4C7.2,4.1,6.9,4.5,7,5c0,0.4,0.3,0.8,0.7,0.8c0,0,0,0,0.1,0c0.2,0,0.3-0.1,0.4-0.3
	C8.2,5.2,8.3,5,8.2,4.8C8.2,4.4,7.9,4,7.6,4z M7.7,5.2C7.7,5.2,7.7,5.2,7.7,5.2L7.7,5.2c-0.1,0.1-0.3,0-0.3-0.3
	c0-0.2,0.1-0.4,0.1-0.4c0.1,0,0.2,0.1,0.2,0.3C7.8,5,7.8,5.1,7.7,5.2z"/>
<path class="st0" d="M3.3,2C2.8,1.8,2.2,2,1.9,2.6C1.8,2.8,1.7,3.1,1.8,3.4C1.9,3.6,2.1,3.9,2.3,4c0.1,0.1,0.3,0.1,0.4,0.1
	c0.4,0,0.8-0.2,1-0.6C4,2.9,3.8,2.3,3.3,2z M3.3,3.3C3.2,3.6,2.8,3.7,2.6,3.6C2.4,3.5,2.3,3.4,2.3,3.2c0-0.2,0-0.3,0-0.5
	c0.1-0.2,0.3-0.4,0.6-0.4c0.1,0,0.2,0,0.2,0.1C3.4,2.6,3.5,3,3.3,3.3z"/>
</svg>
