<?xml version="1.0" encoding="utf-8"?>
<!-- Generator: Adobe Illustrator 23.0.5, SVG Export Plug-In . SVG Version: 6.00 Build 0)  -->
<svg version="1.1" id="Слой_1" xmlns="http://www.w3.org/2000/svg" xmlns:xlink="http://www.w3.org/1999/xlink" x="0px" y="0px"
	 viewBox="0 0 64 64" style="enable-background:new 0 0 64 64;" xml:space="preserve">
<style type="text/css">
	.st0{fill:#FF2400;}
</style>
<title>a</title>
<g>
	<circle class="st0" cx="11.5" cy="56.3" r="2.6"/>
	<circle class="st0" cx="32" cy="56.3" r="2.6"/>
	<circle class="st0" cx="52.5" cy="56.3" r="2.6"/>
	<path class="st0" d="M23,9c0-2.8-2.3-5.1-5.1-5.1S12.8,6.1,12.8,9s2.3,5.1,5.1,5.1S23,11.8,23,9z M15.4,9c0-1.4,1.1-2.6,2.6-2.6
		c1.4,0,2.6,1.1,2.6,2.6c0,1.4-1.1,2.6-2.6,2.6C16.5,11.5,15.4,10.4,15.4,9z"/>
	<path class="st0" d="M63.3,32.1c-0.4-0.2-0.9-0.1-1.3,0.2l-4.8,3.8c-0.2-0.2-0.5-0.3-0.8-0.3h-1.9l-4.7-7.1
		c-0.2-0.4-0.6-0.6-1.1-0.6h-5.1v-5.9l4.7-4.7l0,0c4.6,3.7,11.2,3.3,15.4-0.8c0.5-0.5,0.5-1.3,0-1.8l-6.4-6.3l1.1-1.1
		c0.5,0.2,1.1,0.4,1.7,0.4c1,0,2-0.4,2.8-1.2l0,0c1.5-1.5,1.5-3.9,0-5.4s-3.9-1.5-5.4,0c-1.2,1.2-1.5,2.9-0.8,4.4l-1.1,1.1l-6.4-6.3
		c-0.5-0.5-1.3-0.5-1.8,0c-4.2,4.2-4.5,10.8-0.8,15.4l0,0L41.5,21c-0.2,0.2-0.4,0.6-0.3,0.9v6.4h-5.1c-0.4,0-0.8,0.2-1.1,0.6l-5,6.9
		h-4.4V32c0-0.7-0.6-1.3-1.3-1.3h-2.6V17.9h6.4c0.7,0,1.3-0.6,1.3-1.3V1.3c0-0.7-0.6-1.3-1.3-1.3H7.7C7,0,6.4,0.6,6.4,1.3v15.4
		C6.4,17.4,7,18,7.7,18h6.4v12.8h-2.6c-0.7,0-1.3,0.6-1.3,1.3v3.8H7.7c-0.3,0-0.6,0.1-0.8,0.3l-4.8-3.8C1.7,32,1.2,32,0.8,32.1
		C0.3,32.3,0,32.8,0,33.3v6.4c0,0.4,0.2,0.8,0.5,1l6.4,5.1c0.1,0,0.1,0.1,0.2,0.1L7.2,46c0.1,0.1,0.3,0.1,0.5,0.1h4.9l-1.9,1.6
		c-0.3,0.2-0.4,0.6-0.4,1v0.1c-4.2,0.7-7,4.7-6.3,8.9s4.7,7,8.9,6.3s7-4.7,6.3-8.9c-0.5-3.1-2.8-5.5-5.8-6.2l3.2-2.8H41v1.3h-9
		c-0.7,0-1.3,0.6-1.3,1.3v0.1c-4.2,0.7-7,4.7-6.3,8.9s4.7,7,8.9,6.3s7-4.7,6.3-8.9c-0.4-2.1-1.6-4-3.3-5.1h12
		c-3.5,2.3-4.5,7.1-2.2,10.6s7.1,4.5,10.6,2.2s4.5-7.1,2.2-10.6c-1.2-1.8-3-3-5.1-3.3v-0.1c0-0.7-0.6-1.3-1.3-1.3h-9v-1.3h12.8
		c0.2,0,0.3,0,0.5-0.1L57,46c0.1,0,0.1-0.1,0.2-0.1l6.4-5.1c0.3-0.2,0.5-0.6,0.5-1v-6.4C64,32.8,63.7,32.3,63.3,32.1z M59.1,3.1
		c0.2-0.2,0.6-0.4,0.9-0.4c0.3,0,0.7,0.1,0.9,0.4c0.5,0.5,0.5,1.3,0,1.8s-1.3,0.5-1.8,0C58.6,4.4,58.6,3.6,59.1,3.1z M48.3,3.1
		l12.5,12.5c-4,3-9.6,2.2-12.5-1.8C45.9,10.7,45.9,6.3,48.3,3.1z M16.6,56.3c0,2.8-2.3,5.1-5.1,5.1s-5.1-2.3-5.1-5.1
		s2.3-5.1,5.1-5.1S16.6,53.5,16.6,56.3z M57.6,56.3c0,2.8-2.3,5.1-5.1,5.1s-5.1-2.3-5.1-5.1s2.3-5.1,5.1-5.1S57.6,53.5,57.6,56.3z
		 M32,61.4c-2.8,0-5.1-2.3-5.1-5.1s2.3-5.1,5.1-5.1s5.1,2.3,5.1,5.1C37.1,59.1,34.8,61.4,32,61.4z M36.5,30.7h11.4l3.4,5.1H33.1
		L36.5,30.7z M9,2.6h17.9v12.8H9V2.6z M16.6,17.9h2.6v12.8h-2.6V17.9z M12.8,33.3H23v2.6H12.8V33.3z M2.6,35.9L6.4,39v3.1L2.6,39
		C2.6,39,2.6,35.9,2.6,35.9z M19.5,43.5l1.5-1.3h20v1.3H19.5z M42.2,39.7H20.5c-0.3,0-0.6,0.1-0.8,0.3l-4.1,3.5H9v-5.1h46v5.1H43.5
		V41C43.5,40.2,42.9,39.7,42.2,39.7z M61.4,39.1l-3.8,3.1V39l3.8-3.1V39.1z"/>
</g>
</svg>
