<?xml version="1.0" encoding="utf-8"?>
<!-- Generator: Adobe Illustrator 23.0.5, SVG Export Plug-In . SVG Version: 6.00 Build 0)  -->
<svg version="1.1" id="Слой_1" xmlns="http://www.w3.org/2000/svg" xmlns:xlink="http://www.w3.org/1999/xlink" x="0px" y="0px"
	 viewBox="0 0 64 64" style="enable-background:new 0 0 64 64;" xml:space="preserve">
<style type="text/css">
	.st0{fill:#FF2400;}
</style>
<title>a</title>
<g>
	<path class="st0" d="M28.7,34h3l-1,2.1c-0.3,0.7-0.1,1.5,0.6,1.9c0.2,0.1,0.4,0.1,0.6,0.1c0.5,0,1-0.3,1.2-0.8l1.9-4.1
		c0.2-0.4,0.2-0.9-0.1-1.3c-0.3-0.4-0.7-0.6-1.2-0.6h-3l2.8-6c0.3-0.7,0.1-1.5-0.6-1.9c-0.7-0.3-1.5-0.1-1.9,0.6l-3.8,8
		c-0.2,0.4-0.2,0.9,0.1,1.3C27.8,33.7,28.2,34,28.7,34z"/>
	<circle class="st0" cx="23.8" cy="25.7" r="1.2"/>
	<path class="st0" d="M53.5,49.6c0.8-0.3,1.6-0.8,2.1-1.5c1.5-1.9,1.4-4.7-0.4-6.4c-0.9-0.9-1.4-2.1-1.4-3.3V26.9l0,0
		c0-1.9-0.2-3.7-0.7-5.4l0,0c0-0.1,0-0.1-0.1-0.1c-1.4-5.4-5-10.1-9.7-13v-5C43.3,1.5,41.8,0,40,0c-1.9,0-3.4,1.5-3.4,3.4v2.1
		C35.1,5.2,33.6,5,32,5c-10.1,0-18.6,6.9-21.1,16.2c0,0.1,0,0.1-0.1,0.1l0,0c-0.5,1.7-0.7,3.6-0.7,5.4v11.5c0,1.2-0.5,2.4-1.4,3.3
		c-1.7,1.7-1.9,4.6-0.4,6.4c0.6,0.7,1.4,1.2,2.1,1.5c-2,3-3.3,6.6-3.3,10.5c0,0.8,0.6,1.4,1.4,1.4H35c0.3,1.4,1.5,2.6,3,2.6h4
		c1.5,0,2.8-1.1,3-2.6h10.4c0.8,0,1.4-0.6,1.4-1.4C56.9,56.2,55.6,52.6,53.5,49.6z M53.3,43.7c0.8,0.8,0.9,1.9,0.2,2.7
		c-0.6,0.7-1.6,0.9-2.4,0.5v0.1c-2.1-2-4.8-3.4-7.7-4.2v-1.9c4-3.3,6.6-8.3,6.6-13.9c0-3.4-0.9-6.6-2.6-9.4c1.5,0.9,2.6,2.4,3.2,4.6
		c0.4,1.5,0.6,3.2,0.6,4.8l0,0v11.5C51.1,40.4,51.9,42.3,53.3,43.7z M20.7,16.8c1.7,0.2,3.2,1,4.2,1.9c1.9,1.9,4.4,3,7.1,3
		c1.7,0,3.2-0.4,4.6-1.1v20.9c-1.4,0.5-3,0.7-4.6,0.7c-8.4,0-15.2-6.8-15.2-15.2C16.8,23.1,18.2,19.6,20.7,16.8z M39.4,3.4
		c0-0.3,0.3-0.6,0.6-0.6c0.3,0,0.6,0.3,0.6,0.6v41.8h-1.3L39.4,3.4L39.4,3.4z M42.4,48.3v0.5c-0.1,0-0.3-0.1-0.6-0.1h-4.1v-0.4
		c0-0.2,0.1-0.3,0.3-0.3h4C42.2,47.9,42.3,48.1,42.4,48.3C42.4,48.2,42.4,48.2,42.4,48.3z M36.2,52.5c-0.3,0-0.6-0.2-0.6-0.6
		s0.2-0.6,0.6-0.6h3.1c-0.1,0.3-0.3,0.7-0.4,1L36.2,52.5L36.2,52.5z M46,56.4c0,0.7-0.3,1.4-0.9,1.8c-0.4,0.3-0.8,0.5-1.4,0.5
		c-0.3,0-0.7-0.1-1-0.3c-0.1-0.1-0.3-0.1-0.3-0.2c-0.3-0.3-0.6-0.6-0.8-1c-0.1-0.2-0.1-0.4-0.1-0.7l0,0v-2.8c0-0.4,0.1-0.8,0.3-1.2
		c0.1-0.2,0.3-0.4,0.5-0.6l0,0c0.3-0.3,0.8-0.5,1.3-0.5h0.1c0.6,0,1,0.2,1.4,0.5l0,0c0.6,0.4,0.9,1,0.9,1.8L46,56.4L46,56.4z
		 M43.4,16.9c2.4,2.8,3.8,6.3,3.8,10c0,3.9-1.4,7.4-3.8,10V16.9z M34.4,44.9c-1,1.2-1.9,2.8-2.5,4.7c-0.6-1.9-1.4-3.5-2.5-4.7H34.4z
		 M42,61.2h-4c-0.2,0-0.3-0.1-0.3-0.3v-5.7h1v1.2c0,0.5,0.1,0.9,0.2,1.3c0.1,0.3,0.2,0.6,0.3,1c0.6,1.2,1.7,2.1,2.9,2.5
		C42.2,61.2,42.1,61.2,42,61.2z M46.2,14.2c-0.9-0.2-1.9-0.3-2.8-0.2v-2.4C44.4,12.3,45.4,13.2,46.2,14.2z M32,7.8
		c1.6,0,3.1,0.2,4.6,0.6v8.8c-1.3,1-2.9,1.7-4.6,1.7c-1.9,0-3.7-0.8-5.1-2.1c-2.3-2.3-5.9-3.2-9.1-2.6C21.3,10.3,26.4,7.8,32,7.8z
		 M12.9,46.9c-0.8,0.4-1.8,0.2-2.4-0.5c-0.6-0.8-0.6-2,0.2-2.8c1.4-1.4,2.1-3.2,2.1-5.2V26.9c0-1.7,0.2-3.3,0.6-4.8
		c0.6-2.1,1.7-3.7,3.2-4.6c-1.7,2.8-2.6,6-2.6,9.4c0,6.5,3.4,12.2,8.7,15.4C19,42.8,15.6,44.5,12.9,46.9L12.9,46.9z M10,58.7
		c0.4-4.3,2.6-8,5.7-10.6c2.5-1.2,5-1,7,0.7c1.1,1,2.3,3.4,2.5,9.9H10z M27.9,58.7c-0.1-6.1-1.2-10-3.4-11.9
		c-0.8-0.7-1.7-1.2-2.6-1.6c0.7-0.1,1.4-0.3,2.1-0.3c5.6,0.1,6.6,9.3,6.7,13.8C30.6,58.7,27.9,58.7,27.9,58.7z M33.8,54.3
		c0.3,0.3,0.7,0.6,1.1,0.8v3.7h-1.5C33.5,57.4,33.6,55.9,33.8,54.3z M48.2,58.7c0.3-0.7,0.6-1.4,0.6-2.3v-2.8c0-2.3-1.5-4.2-3.7-4.8
		v-0.6c0-0.3-0.1-0.6-0.1-0.8c1.1-0.1,2.2,0.2,3.3,0.8c3.2,2.6,5.3,6.3,5.7,10.6H48.2z"/>
</g>
</svg>
